<svg width="145" height="24" viewBox="0 0 145 24" fill="none" xmlns="http://www.w3.org/2000/svg">
<g clip-path="url(#clip0_1898_4495)">
<path d="M16.5084 18.7264C15.2129 20.1299 13.4266 20.8071 11.0907 20.8071C8.75477 20.8071 6.88996 19.9827 5.41775 18.3632C3.94553 16.7143 3.1898 14.4864 3.1898 11.7284C3.1898 8.9705 3.94553 6.74255 5.41775 5.12311C6.88996 3.47423 8.79403 2.64979 11.0907 2.64979C13.3873 2.64979 15.2129 3.33683 16.5084 4.73052C17.6077 5.91811 18.2849 7.34125 18.5303 9.01957L21.5336 8.84291C21.1901 6.36959 20.2184 4.34775 18.5892 2.71849C16.7931 0.892949 14.2805 -0.0100098 11.0907 -0.0100098C7.90089 -0.0100098 5.34905 1.07943 3.1898 3.26812C1.07962 5.45681 0 8.25402 0 11.7383C0 15.2225 1.07962 18.0197 3.1898 20.2084C5.33923 22.3971 7.95977 23.4767 11.0809 23.4767C14.202 23.4767 16.7832 22.5836 18.5793 20.7482C20.238 19.0895 21.2097 17.0088 21.5434 14.4668L18.5499 14.3097C18.3242 16.0469 17.6273 17.5192 16.5084 18.7362V18.7264Z" fill="white"/>
<path d="M26.6862 0.431854H23.7123V23.0353H26.6862V0.431854Z" fill="white"/>
<path d="M42.3016 19.9535V12.9163C42.3016 8.93149 39.9363 6.91946 36.0202 6.91946C32.32 6.91946 29.9939 9.10816 29.3854 12.0133L32.0452 12.3765C32.5065 10.5509 33.7333 9.21612 35.9907 9.21612C38.2481 9.21612 39.4357 10.5411 39.4357 12.7004V13.3089L35.2055 14.1726C33.3407 14.5652 31.8293 15.105 30.6515 15.8215C29.4639 16.5379 28.8947 17.647 28.8947 19.1192C28.8947 21.8085 30.9067 23.4573 33.9198 23.4573C36.4717 23.4573 38.6898 22.0931 39.5535 20.2675C39.7302 22.1323 40.8785 23.3494 42.4979 23.3494C43.6855 23.3494 44.3627 22.9568 44.9025 22.417V20.7975C44.4707 21.0527 43.8622 21.1607 43.5383 21.1607C42.7825 21.1607 42.3212 20.7681 42.3212 19.9437L42.3016 19.9535ZM39.4357 16.0374C39.4357 19.1977 37.2863 21.2785 34.5578 21.2785C32.8009 21.2785 31.8685 20.2774 31.8685 18.9426C31.8685 17.0385 33.4781 16.5772 35.922 16.0374L39.4357 15.2816V16.0374Z" fill="white"/>
<path d="M54.0598 14.104L51.1154 13.6328C49.496 13.3482 48.7108 12.7004 48.7108 11.4441C48.7108 10.0112 50.0063 9.10824 51.9791 9.10824C54.5996 9.10824 56.1405 10.2173 56.4644 12.6219L58.8691 12.4747C58.5844 8.8825 56.1405 6.90973 51.9791 6.90973C48.3869 6.90973 45.9528 8.84324 45.9528 11.719C45.9528 14.4082 47.7489 15.6645 50.6541 16.1356L53.3139 16.6067C55.218 16.9306 56.2976 17.4704 56.2976 18.9426C56.2976 20.5228 54.7174 21.2785 52.6759 21.2785C49.9867 21.2785 48.2985 19.983 48.0139 17.5784L45.5013 17.755C45.786 21.6319 48.7991 23.4574 52.6759 23.4574C54.5113 23.4574 56.013 23.0648 57.23 22.2404C58.4863 21.416 59.0948 20.1989 59.0948 18.6482C59.0948 15.8117 57.23 14.6339 54.0696 14.0941L54.0598 14.104Z" fill="white"/>
<path d="M69.0861 14.104L66.1416 13.6328C64.5222 13.3482 63.737 12.7004 63.737 11.4441C63.737 10.0112 65.0326 9.10824 67.0053 9.10824C69.6259 9.10824 71.1668 10.2173 71.4907 12.6219L73.8953 12.4747C73.6107 8.8825 71.1668 6.90973 67.0053 6.90973C63.4131 6.90973 60.9791 8.84324 60.9791 11.719C60.9791 14.4082 62.7752 15.6645 65.6803 16.1356L68.3401 16.6067C70.2442 16.9306 71.3238 17.4704 71.3238 18.9426C71.3238 20.5228 69.7437 21.2785 67.7022 21.2785C65.0129 21.2785 63.3248 19.983 63.0402 17.5784L60.5276 17.755C60.8122 21.6319 63.8254 23.4574 67.7022 23.4574C69.5375 23.4574 71.0392 23.0648 72.2562 22.2404C73.5125 21.416 74.121 20.1989 74.121 18.6482C74.121 15.8117 72.2562 14.6339 69.0959 14.0941L69.0861 14.104Z" fill="white"/>
<path d="M83.9065 6.9292C82.7974 6.9292 81.8257 7.32179 81.0307 8.07753C80.275 8.83326 79.7352 9.6577 79.4506 10.5508V7.36105H76.4767V23.045H79.4506V14.7516C79.4506 11.7384 81.1387 9.68715 83.3961 9.68715C84.3678 9.68715 84.9763 9.86381 85.84 10.3349L86.1246 7.64568C85.5848 7.18438 84.8683 6.9292 83.8967 6.9292H83.9065Z" fill="white"/>
<path d="M93.8782 6.9292C91.5816 6.9292 89.6775 7.71438 88.1758 9.26511C86.6644 10.806 85.9185 12.8181 85.9185 15.2227C85.9185 17.6273 86.6742 19.6393 88.1758 21.1802C89.6873 22.7212 91.5816 23.4769 93.8782 23.4769C96.1749 23.4769 98.0789 22.7212 99.6199 21.1802C101.161 19.6393 101.917 17.6273 101.917 15.2227C101.917 12.8181 101.161 10.806 99.6199 9.26511C98.0789 7.72419 96.1749 6.9292 93.8782 6.9292ZM93.8782 21.1704C90.7179 21.1704 88.961 18.6578 88.961 15.2129C88.961 11.7679 90.7179 9.2553 93.8782 9.2553C97.0386 9.2553 98.8641 11.7286 98.8641 15.2129C98.8641 18.6971 97.0288 21.1704 93.8782 21.1704Z" fill="white"/>
<path d="M110.887 6.9292C108.591 6.9292 106.687 7.71438 105.185 9.26511C103.674 10.806 102.928 12.8181 102.928 15.2227C102.928 17.6273 103.683 19.6393 105.185 21.1802C106.696 22.7212 108.591 23.4769 110.887 23.4769C113.184 23.4769 115.088 22.7212 116.629 21.1802C118.17 19.6393 118.926 17.6273 118.926 15.2227C118.926 12.8181 118.17 10.806 116.629 9.26511C115.088 7.72419 113.184 6.9292 110.887 6.9292ZM110.887 21.1704C107.727 21.1704 105.97 18.6578 105.97 15.2129C105.97 11.7679 107.727 9.2553 110.887 9.2553C114.048 9.2553 115.873 11.7286 115.873 15.2129C115.873 18.6971 114.038 21.1704 110.887 21.1704Z" fill="white"/>
<path d="M143.57 8.794C142.746 7.53771 141.342 6.9292 139.301 6.9292C136.828 6.9292 134.855 8.44067 134.03 10.3349C133.343 8.29345 131.665 6.9292 128.897 6.9292C126.493 6.9292 124.667 8.25419 123.911 10.1583V7.36105H120.937V23.045H123.911V14.0351C123.911 11.1692 125.707 9.29456 127.896 9.29456C130.301 9.29456 131.38 10.9827 131.38 13.564V23.0352H134.364V14.0253C134.364 11.1594 136.19 9.28474 138.378 9.28474C140.783 9.28474 141.863 10.9729 141.863 13.5542V23.0254H144.836V13.299C144.836 11.5421 144.405 10.0307 143.58 8.77437L143.57 8.794Z" fill="white"/>
</g>
<defs>
<clipPath id="clip0_1898_4495">
<rect width="144.827" height="23.4671" fill="white"/>
</clipPath>
</defs>
</svg>
