<svg width="86" height="86" viewBox="0 0 86 86" fill="none" xmlns="http://www.w3.org/2000/svg">
<path d="M14.9495 41.7722H16.488V48.5285C17.1082 47.7056 17.794 47.0973 18.5394 46.6859C19.2848 46.2804 20.0958 46.0776 20.9664 46.0776C21.837 46.0776 22.654 46.3042 23.3457 46.7574C24.0374 47.2106 24.5503 47.8189 24.8782 48.5822C25.2062 49.3454 25.3732 50.55 25.3732 52.178V58.332H23.8347V52.6312C23.8347 51.2537 23.781 50.3353 23.6677 49.8762C23.4769 49.0831 23.131 48.4927 22.6301 48.0932C22.1292 47.6936 21.4733 47.4969 20.6623 47.4969C19.732 47.4969 18.8972 47.8069 18.1637 48.4211C17.4302 49.0354 16.9412 49.7986 16.7087 50.705C16.5596 51.2954 16.488 52.3747 16.488 53.955V58.3379H14.9495V41.7722Z" fill="white"/>
<path d="M34.3957 47.5804C33.1136 47.5804 32.0164 48.0515 31.0981 48.9996C30.1797 49.9418 29.7206 51.0867 29.7206 52.4284C29.7206 53.2931 29.9293 54.0981 30.3467 54.8435C30.7641 55.5889 31.3306 56.1674 32.0462 56.5729C32.7558 56.9784 33.543 57.1811 34.3957 57.1811C35.2484 57.1811 36.0296 56.9784 36.7392 56.5729C37.4548 56.1674 38.0154 55.5889 38.4387 54.8435C38.8562 54.0981 39.0649 53.2931 39.0649 52.4284C39.0649 51.0867 38.6057 49.9478 37.6814 48.9996C36.7571 48.0515 35.6599 47.5804 34.3897 47.5804M34.4017 46.0776C36.2443 46.0776 37.7709 46.7455 38.9814 48.0753C40.0846 49.2918 40.6332 50.7289 40.6332 52.3927C40.6332 54.0564 40.0488 55.5233 38.886 56.7696C37.7232 58.016 36.2264 58.6421 34.4017 58.6421C32.5769 58.6421 31.0682 58.016 29.9054 56.7696C28.7426 55.5174 28.1582 54.0624 28.1582 52.3927C28.1582 50.723 28.7068 49.3037 29.81 48.0872C31.0205 46.7455 32.5471 46.0776 34.3957 46.0776" fill="white"/>
<path d="M49.9358 47.5565C48.606 47.5565 47.4849 48.0216 46.5785 48.9518C45.6661 49.8821 45.2129 51.039 45.2129 52.4224C45.2129 53.3288 45.4157 54.1458 45.8212 54.8673C46.2267 55.5889 46.8051 56.1673 47.5624 56.5907C48.3198 57.0141 49.1188 57.2288 49.9596 57.2288C50.8005 57.2288 51.5637 57.0141 52.2913 56.5847C53.0188 56.1554 53.5972 55.5591 54.0265 54.7898C54.4559 54.0206 54.6706 53.2155 54.6706 52.3747C54.6706 51.5339 54.4559 50.717 54.0265 49.9596C53.6032 49.2023 53.0247 48.606 52.3032 48.1886C51.5816 47.7652 50.7885 47.5565 49.9358 47.5565ZM43.7877 46.3817H45.3262V48.5762C45.9345 47.7413 46.6322 47.1152 47.4193 46.6978C48.2065 46.2803 49.089 46.0716 50.061 46.0716C51.7605 46.0716 53.2096 46.6858 54.4142 47.9083C55.6187 49.1307 56.227 50.6037 56.227 52.321C56.227 54.0384 55.6306 55.571 54.432 56.7934C53.2334 58.0219 51.7903 58.6361 50.1028 58.6361C49.1487 58.6361 48.278 58.4393 47.479 58.0457C46.6799 57.6521 45.9583 57.0618 45.3143 56.2747V62.703H43.7758V46.3817H43.7877Z" fill="white"/>
<path d="M69.1494 51.1523C68.9466 50.3353 68.6425 49.6794 68.2549 49.1844C67.8613 48.6954 67.3425 48.2959 66.6985 47.9977C66.0545 47.6996 65.3747 47.5505 64.665 47.5505C63.4903 47.5505 62.4825 47.9262 61.6417 48.6835C61.0275 49.2321 60.5624 50.055 60.2463 51.1523H69.1553H69.1494ZM69.1494 54.3664L70.4434 55.0462C70.02 55.8811 69.5251 56.5549 68.9705 57.0678C68.4159 57.5806 67.7898 57.9682 67.0921 58.2365C66.3944 58.5049 65.6072 58.6361 64.7306 58.6361C62.7807 58.6361 61.2541 57.998 60.1569 56.7219C59.0596 55.4458 58.5051 54.0027 58.5051 52.3866C58.5051 50.872 58.9702 49.5184 59.9005 48.3317C61.0812 46.823 62.6614 46.0716 64.6412 46.0716C66.621 46.0716 68.3026 46.8409 69.5191 48.3853C70.3838 49.4766 70.825 50.8362 70.837 52.4701H60.0853C60.1151 53.8596 60.5564 54.9985 61.4151 55.8811C62.2738 56.7696 63.3293 57.2109 64.5935 57.2109C65.2017 57.2109 65.7921 57.1035 66.3705 56.8948C66.943 56.6801 67.4379 56.3999 67.8375 56.054C68.243 55.7022 68.6783 55.1416 69.1494 54.3605" fill="white"/>
<path d="M52.1779 34.7356V35.6062C51.85 35.4691 51.5757 35.3975 51.3431 35.3975C51.1702 35.3975 51.027 35.4333 50.9137 35.5049C50.8004 35.5764 50.7289 35.6539 50.6991 35.7434C50.6693 35.8328 50.6573 36.0773 50.6573 36.4709V37.4012H52.0945V38.1704H50.6514V44.3006H49.7628V38.1704H48.8564V37.4012H49.7628V36.3218C49.7628 35.8269 49.8046 35.4751 49.9 35.2663C49.9895 35.0517 50.1445 34.8847 50.3651 34.7535C50.5798 34.6223 50.8482 34.5627 51.1523 34.5627C51.4385 34.5627 51.7844 34.6223 52.1839 34.7416" fill="white"/>
<path d="M56.3526 38.087C55.6131 38.087 54.981 38.3613 54.4503 38.9039C53.9196 39.4466 53.6572 40.1085 53.6572 40.8837C53.6572 41.3846 53.7765 41.8438 54.021 42.2791C54.2654 42.7084 54.5875 43.0424 54.9989 43.2809C55.4104 43.5194 55.8636 43.6327 56.3526 43.6327C56.8415 43.6327 57.2947 43.5135 57.7062 43.2809C58.1177 43.0483 58.4456 42.7144 58.6842 42.2791C58.9287 41.8497 59.0479 41.3846 59.0479 40.8837C59.0479 40.1085 58.7855 39.4525 58.2489 38.9039C57.7181 38.3613 57.086 38.087 56.3526 38.087ZM56.3526 37.2163C57.414 37.2163 58.2966 37.598 58.9943 38.3672C59.6323 39.0649 59.9484 39.8998 59.9484 40.8539C59.9484 41.808 59.6144 42.6607 58.9406 43.3763C58.2727 44.0979 57.408 44.4557 56.3526 44.4557C55.2971 44.4557 54.4324 44.0979 53.7586 43.3763C53.0907 42.6548 52.7508 41.814 52.7508 40.8539C52.7508 39.8938 53.0668 39.0709 53.7049 38.3732C54.4026 37.598 55.2852 37.2163 56.3526 37.2163Z" fill="white"/>
<path d="M60.9918 37.3952H61.8982V38.403C62.1665 38.0035 62.4527 37.7053 62.7509 37.5145C63.0491 37.3177 63.3651 37.2223 63.6871 37.2223C63.9316 37.2223 64.194 37.2998 64.4743 37.4549L64.0151 38.2003C63.8302 38.1168 63.6752 38.081 63.544 38.081C63.2458 38.081 62.9596 38.2062 62.6913 38.4447C62.417 38.6892 62.2083 39.0649 62.0651 39.5778C61.9578 39.9713 61.8982 40.7644 61.8982 41.9571V44.2887H60.9918V37.3952Z" fill="white"/>
<path d="M23.0837 28.6651L22.3204 29.4582C21.6824 28.838 21.0622 28.5279 20.454 28.5279C20.0664 28.5279 19.7324 28.6531 19.4581 28.9095C19.1838 29.166 19.0466 29.4641 19.0466 29.804C19.0466 30.1081 19.1599 30.3944 19.3865 30.6627C19.6131 30.937 20.0902 31.265 20.8177 31.6407C21.7062 32.0999 22.3085 32.5411 22.6246 32.9705C22.9346 33.3998 23.0957 33.8888 23.0957 34.4255C23.0957 35.1828 22.8273 35.8268 22.2966 36.3576C21.7659 36.8823 21.098 37.1507 20.293 37.1507C19.7563 37.1507 19.2494 37.0314 18.7604 36.7988C18.2714 36.5663 17.8719 36.2443 17.5558 35.8388L18.3072 34.986C18.9155 35.6718 19.5595 36.0177 20.2393 36.0177C20.7163 36.0177 21.1218 35.8626 21.4617 35.5585C21.7957 35.2544 21.9626 34.8906 21.9626 34.4792C21.9626 34.1393 21.8553 33.8351 21.6287 33.5668C21.4081 33.3044 20.9072 32.9764 20.126 32.5769C19.2911 32.1476 18.7187 31.7182 18.4205 31.3008C18.1164 30.8774 17.9673 30.4003 17.9673 29.8637C17.9673 29.16 18.2058 28.5756 18.6889 28.1105C19.1719 27.6453 19.7742 27.4128 20.5076 27.4128C21.3604 27.4128 22.2191 27.8302 23.0837 28.6651Z" fill="white"/>
<path d="M24.9261 27.6514H26.1188V36.9122H24.9261V27.6514ZM25.5165 23.8409C25.7848 23.8409 26.0174 23.9363 26.2142 24.1331C26.405 24.3239 26.5004 24.5565 26.5004 24.8308C26.5004 25.1051 26.405 25.3257 26.2142 25.5225C26.0234 25.7133 25.7908 25.8147 25.5165 25.8147C25.2422 25.8147 25.0215 25.7193 24.8307 25.5225C24.6399 25.3317 24.5445 25.0991 24.5445 24.8308C24.5445 24.5624 24.6399 24.3239 24.8307 24.1331C25.0215 23.9423 25.2541 23.8409 25.5165 23.8409Z" fill="white"/>
<path d="M28.5041 27.6513H29.6967V29.3091C30.1738 28.677 30.6985 28.1999 31.277 27.8839C31.8554 27.5678 32.4875 27.4128 33.1673 27.4128C33.8471 27.4128 34.4732 27.5857 35.0099 27.9375C35.5466 28.2894 35.9402 28.7605 36.1966 29.3568C36.453 29.9531 36.5782 30.8774 36.5782 32.1416V36.9062H35.3856V32.4875C35.3856 31.42 35.3439 30.7104 35.2544 30.3526C35.1173 29.7384 34.8489 29.2793 34.4613 28.9692C34.0677 28.6591 33.5609 28.504 32.9288 28.504C32.2072 28.504 31.5632 28.7426 30.9907 29.2196C30.4183 29.6967 30.0485 30.287 29.8637 30.9907C29.7504 31.4499 29.6907 32.2907 29.6907 33.5072V36.9062H28.4981V27.6453L28.5041 27.6513Z" fill="white"/>
<path d="M42.8157 28.5577C42.1419 28.5577 41.5158 28.7187 40.9373 29.0467C40.3589 29.3747 39.9057 29.8219 39.5777 30.4003C39.2498 30.9788 39.0828 31.5989 39.0828 32.2668C39.0828 33.2806 39.4227 34.1214 40.1025 34.7833C40.7823 35.4452 41.6648 35.7791 42.7501 35.7791C43.8355 35.7791 44.724 35.4512 45.3918 34.7952C46.0597 34.1393 46.3937 33.2746 46.3937 32.2012C46.3937 31.5035 46.2386 30.8834 45.9345 30.3347C45.6304 29.7861 45.1951 29.3568 44.6345 29.0348C44.074 28.7187 43.4717 28.5577 42.8217 28.5577M46.334 27.6513H47.5267V35.0278C47.5267 36.3278 47.4134 37.2759 47.1868 37.8782C46.8767 38.7309 46.334 39.3869 45.5588 39.846C44.7896 40.3052 43.8593 40.5318 42.774 40.5318C41.9809 40.5318 41.2653 40.4185 40.6332 40.1979C40.0011 39.9713 39.4823 39.6731 39.0887 39.2915C38.6952 38.9158 38.3255 38.3612 37.9915 37.6337H39.2855C39.6374 38.2479 40.0906 38.7011 40.6511 38.9933C41.2057 39.2855 41.8974 39.4346 42.7203 39.4346C43.5433 39.4346 44.2171 39.2855 44.7776 38.9814C45.3382 38.6773 45.7377 38.2956 45.9762 37.8424C46.2148 37.3832 46.334 36.6438 46.334 35.6241V35.147C45.8868 35.7135 45.3382 36.1489 44.6882 36.453C44.0382 36.7571 43.3524 36.9062 42.6249 36.9062C41.7722 36.9062 40.9731 36.6975 40.2218 36.2741C39.4704 35.8507 38.892 35.2842 38.4865 34.5686C38.075 33.853 37.8723 33.0659 37.8723 32.2132C37.8723 31.3604 38.0869 30.5554 38.5103 29.8159C38.9397 29.0765 39.5241 28.4921 40.2754 28.0568C41.0268 27.6275 41.8199 27.4128 42.6547 27.4128C43.3465 27.4128 43.9905 27.5559 44.5928 27.8421C45.1891 28.1284 45.7675 28.5995 46.3281 29.2614V27.6513H46.334Z" fill="white"/>
<path d="M42.5653 77.7481C23.5009 77.7481 8.05031 62.1603 8.05031 42.935C8.05031 23.7097 23.5009 8.12187 42.5653 8.12187C61.6296 8.12187 77.0802 23.7097 77.0802 42.935C77.0802 62.1603 61.6296 77.7481 42.5653 77.7481ZM42.5653 0C19.0584 0 0 19.2253 0 42.935C0 66.6447 19.0584 85.87 42.5653 85.87C66.0722 85.87 85.1306 66.6447 85.1306 42.935C85.1306 19.2253 66.0782 0 42.5653 0Z" fill="white"/>
</svg>
