<svg width="91" height="90" viewBox="0 0 91 90" fill="none" xmlns="http://www.w3.org/2000/svg">
<rect x="0.408203" y="0.640869" width="89.2044" height="89.2044" rx="17.7359" transform="rotate(-0.256047 0.408203 0.640869)" fill="#3F7E44"/>
<path d="M55.3512 47.2217C55.0764 47.1461 53.9151 45.5382 54.8359 44.4868C54.987 44.315 54.5266 43.7997 54.6572 43.7928C55.1588 43.7516 55.4268 44.0677 55.5574 44.5143C55.5643 44.7136 55.578 44.9129 55.5711 45.1121C55.5711 45.8337 55.4955 46.5414 55.3512 47.2217ZM52.5133 52.4373C52.4102 52.4098 52.3071 52.3754 52.1903 52.3136C51.6268 52.025 51.6955 52.4854 51.4138 52.3823C51.1321 52.2792 51.7299 51.6333 50.8916 52.1762C50.0601 52.719 50.2869 52.0937 49.9227 51.1729C49.5585 50.2521 50.3418 49.2008 50.9946 48.9671C51.8948 48.6442 52.4514 48.5754 52.8706 48.4724C54.1143 48.1631 54.3755 47.4279 54.6022 47.8745C54.6435 47.957 54.6847 48.0395 54.7259 48.115C54.7946 48.2525 54.884 48.5205 54.884 48.7885C54.3548 50.1696 53.5371 51.4066 52.5064 52.4304M45.2156 55.4333C44.2055 55.4333 43.2297 55.2821 42.3089 55.0141C42.1783 54.9042 42.1028 54.7255 42.1852 54.5056C42.5082 53.6742 43.4565 53.3443 44.2123 53.2756C45.889 53.1107 48.0879 54.3682 48.4384 54.1689C48.7888 53.9697 49.4966 53.0489 50.5411 53.0901C51.2489 53.1176 51.242 53.2344 51.4825 53.3306C49.744 54.6568 47.5726 55.4402 45.2156 55.4402M43.8207 48.6923C43.6764 48.9259 43.2847 50.6644 43.0304 50.4583C42.7693 50.2521 43.1404 48.4449 43.216 48.3075C43.6283 47.5584 44.5078 47.5997 43.8275 48.6923M48.0467 46.6445C47.8406 46.8232 47.3183 46.7613 47.0572 46.5552C46.7961 46.3559 47.2221 46.0192 47.3802 46.0055C47.7306 45.978 48.2529 46.459 48.0467 46.6445ZM52.6095 46.672C52.4995 46.6308 52.3964 46.5277 52.314 46.2734C52.2315 46.0192 52.4445 45.8749 52.6507 45.978C52.8637 46.0879 53.1386 46.404 53.1386 46.5689C53.1386 46.7339 52.7194 46.7201 52.6095 46.672ZM53.0492 46.9881C53.3997 46.9606 53.9151 47.4416 53.7158 47.6271C53.5096 47.8127 52.9943 47.744 52.7331 47.5378C52.472 47.3385 52.8981 47.0018 53.0561 46.9881M41.9516 51.0973C41.7523 51.8876 41.5187 52.1693 41.3125 52.4235C41.1132 52.6778 40.3711 52.9939 39.9038 52.9595C39.4366 52.9252 39.3679 51.6677 39.3679 51.0217C39.3679 50.8018 39.0518 51.4615 38.8868 50.1147C38.7838 49.2557 38.2272 50.204 38.1928 49.6268C38.1516 49.0564 37.8767 49.1664 37.5881 48.8091C37.2995 48.4517 36.9422 48.8434 36.5368 49.0221C36.1382 49.2007 36.3031 49.2901 35.7328 49.1114C35.719 49.1114 35.7122 49.1046 35.6984 49.0977C35.1762 47.8608 34.8876 46.5002 34.8944 45.0709C34.8944 44.7205 34.9151 44.3769 34.9494 44.0402C34.97 44.0058 34.9906 43.9715 35.0113 43.944C35.561 43.298 35.5472 43.1469 35.5472 43.1469L36.1519 42.9407C36.1519 42.9407 37.114 43.0919 37.8424 43.3668C38.4402 43.5935 39.3816 44.102 39.9313 43.8821C40.3299 43.7172 40.6391 43.5042 40.6047 43.1744C40.5635 42.7621 40.2337 42.659 39.842 42.9407C39.6977 43.0438 39.3885 42.3154 39.1411 42.3498C38.9006 42.3841 39.4434 43.2018 39.2373 43.2362C39.0311 43.2706 38.612 42.3841 38.5433 42.2398C38.4745 42.0955 38.1516 41.7382 37.863 42.0131C37.2514 42.5903 36.2619 42.5559 36.0626 42.7071C35.4579 43.1606 35.2999 42.5559 35.3136 42.1917C35.3411 42.1092 35.3617 42.0268 35.3892 41.9375C35.5885 41.7176 36.2962 41.6489 36.5436 41.8138C36.8116 41.9924 37.004 41.7657 37.1071 41.6626C37.217 41.5595 37.1758 41.3877 37.1071 41.2434C37.0384 41.0991 37.2377 40.996 37.382 40.9548C37.5194 40.9205 37.9798 40.5975 38.1653 40.4876C38.3509 40.3845 39.306 40.2677 39.7321 40.4876C40.1581 40.7006 40.5498 40.5288 40.7628 40.2814C41.0308 39.9653 41.3675 39.7317 41.5118 39.6561C41.663 39.5874 41.1476 39.0995 40.7147 39.6286C40.2887 40.1508 40.0688 40.1989 39.8695 40.1989C39.6702 40.1989 38.4745 39.8966 38.3302 39.5187C38.1859 39.1407 38.7013 38.859 39.148 38.646C39.5877 38.4398 40.7903 38.4398 41.0995 38.3711C41.7248 38.2337 42.5288 37.9244 42.9274 38.1993C43.3259 38.4673 41.2438 38.9414 41.9241 39.3125C42.1646 39.4499 43.2709 38.6803 43.6489 38.481C44.5353 38.0275 42.7899 37.8695 43.0167 36.9418C43.2778 35.8904 40.8727 36.289 39.6702 36.3783C41.2782 35.3476 43.1885 34.7566 45.2362 34.7566C50.1151 34.7566 54.1968 38.1443 55.2756 42.6933C55.2825 42.9201 55.2482 43.0782 55.2275 43.1744C55.1313 43.5454 54.4236 43.8684 54.0181 43.2637C53.9151 43.1125 53.4684 42.6933 53.4822 43.408C53.4959 44.1226 54.1762 44.1982 53.5165 44.6311C52.8568 45.0572 52.7331 44.9541 52.4308 45.0641C52.1284 45.174 51.8261 45.9093 51.9017 46.3009C51.9773 46.6926 52.9187 47.7783 52.2178 47.7302C52.0529 47.7165 50.8228 46.8713 50.6167 46.3284C50.4037 45.7581 50.17 45.1946 49.9982 44.7686C49.8333 44.3425 49.3935 44.2257 49.0225 44.48C48.6514 44.7342 49.1255 44.9816 48.8576 45.5244C48.5964 46.0604 48.404 46.5414 48.0123 46.0948C47.0022 44.9404 45.5386 45.5038 45.3118 44.2188C45.1881 43.5179 44.5903 43.5866 44.0887 43.1881C43.587 42.7964 43.3053 42.5834 43.216 42.8651C43.1404 43.1125 44.7964 44.425 44.9132 44.7617C45.0919 45.2633 44.4185 45.7031 43.9237 45.8199C43.4359 45.9367 43.216 45.5451 42.7418 45.0434C42.2608 44.5418 42.0478 44.1845 42.0134 44.5762C41.9653 45.1465 42.467 45.978 42.9617 46.2941C43.3809 46.562 43.8482 46.6789 43.7107 47.1118C43.5733 47.5447 43.7107 47.2973 43.2366 47.7646C42.7693 48.2319 42.6731 48.383 42.7075 49.0221C42.7418 49.668 42.57 49.7024 42.467 50.2384C42.3639 50.7744 42.1302 50.3071 41.931 51.0973M36.4131 39.6973C36.4131 39.6973 36.4612 39.6492 36.468 39.6355C36.6536 39.4224 37.0246 39.3743 37.2858 39.34C37.54 39.2988 37.8836 39.4293 37.9248 39.6011C37.966 39.7729 37.2789 40.0821 37.1552 40.1989C36.7979 40.5288 36.2413 41.1953 35.9114 41.2709C35.8084 41.2984 35.719 41.2778 35.6434 41.2434C35.8565 40.7074 36.1176 40.1921 36.4131 39.7042M36.9422 38.6391C37.0796 38.4398 37.5194 37.8832 37.5744 37.8145C37.6912 37.6702 37.9179 37.6358 38.076 37.6083C38.234 37.574 38.4402 37.6633 38.4677 37.787C38.4952 37.9038 38.4058 38.3642 38.3302 38.4467C38.1104 38.6734 37.5469 38.9895 37.2308 38.9414C36.9903 38.9002 36.8941 38.7147 36.9422 38.646M69.8022 44.796C68.0431 42.3154 60.072 32.4271 45.2293 32.4065C30.3867 32.3859 22.395 42.2604 20.6221 44.7342C20.5465 44.8373 20.4847 44.9335 20.4297 45.0091C20.4847 45.0915 20.5465 45.1809 20.6221 45.2908C22.3881 47.7646 30.3523 57.6597 45.195 57.6803C60.0377 57.7009 68.0294 47.8264 69.7954 45.3526C69.871 45.2427 69.9397 45.1534 69.9878 45.0778C69.9397 45.0022 69.871 44.906 69.7954 44.8029" fill="white"/>
</svg>
