<svg width="90" height="90" viewBox="0 0 90 90" fill="none" xmlns="http://www.w3.org/2000/svg">
<rect x="0.214844" y="0.640869" width="89.2044" height="89.2044" rx="17.5431" transform="rotate(-0.256047 0.214844 0.640869)" fill="#00689D"/>
<path d="M58.7694 27.4496C58.7694 27.4496 57.9931 28.4792 58.2219 29.4761C58.4507 30.473 59.5865 31.0695 59.5865 31.0695C59.5865 31.0695 60.3628 30.0399 60.134 29.043C59.9052 28.0379 58.7694 27.4496 58.7694 27.4496Z" fill="white"/>
<path d="M57.5123 33.316C57.5123 33.316 58.2886 32.2864 58.0598 31.2895C57.831 30.2926 56.6952 29.696 56.6952 29.696C56.6952 29.696 55.9189 30.7257 56.1477 31.7226C56.3765 32.7195 57.5123 33.316 57.5123 33.316Z" fill="white"/>
<path d="M60.6914 32.2137C60.6914 32.2137 61.5086 33.0391 62.4401 32.9573C63.3716 32.8756 64.058 31.9196 64.058 31.9196C64.058 31.9196 63.2409 31.0943 62.3094 31.176C61.3778 31.2577 60.6914 32.2137 60.6914 32.2137Z" fill="white"/>
<path d="M62.0299 27.817C61.2699 28.5851 61.3762 29.9415 61.3762 29.9415C61.3762 29.9415 62.7081 30.0559 63.468 29.2878C64.228 28.5197 64.1136 27.1633 64.1136 27.1633C64.1136 27.1633 62.7817 27.0489 62.0217 27.817" fill="white"/>
<path d="M60.3631 35.2695C61.2865 35.3757 62.1608 34.5831 62.1608 34.5831C62.1608 34.5831 61.5316 33.6107 60.6082 33.5044C59.6767 33.3982 58.8105 34.1908 58.8105 34.1908C58.8105 34.1908 59.4397 35.1632 60.3713 35.2695" fill="white"/>
<path d="M61.1912 50.1654L54.2618 50.1654C53.7225 50.1654 53.2812 50.6067 53.2812 51.146C53.2812 51.6853 53.7225 52.1266 54.2618 52.1266L61.1912 52.1266C61.7305 52.1266 62.1717 51.6853 62.1717 51.146C62.1717 50.6067 61.7305 50.1654 61.1912 50.1654Z" fill="white"/>
<path d="M61.1912 60.9683L54.2618 60.9683C53.7225 60.9683 53.2812 61.4095 53.2812 61.9488C53.2812 62.4882 53.7225 62.9294 54.2618 62.9294L61.1912 62.9294C61.7305 62.9294 62.1717 62.4882 62.1717 61.9488C62.1717 61.4095 61.7305 60.9683 61.1912 60.9683Z" fill="white"/>
<path d="M30.0384 47.788C29.8751 47.739 29.7118 47.69 29.5566 47.6655C29.5566 47.6655 29.7363 47.7227 30.0384 47.788Z" fill="white"/>
<path d="M41.2663 52.0287C41.7239 52.0287 42.1815 52.0287 42.6391 51.9879L42.6391 55.6078L41.2663 55.5751L41.2663 52.0287ZM60.9355 52.8132L54.5126 52.8132C54.202 52.8132 53.9569 53.0665 53.9569 53.3689L53.9569 55.3137L49.7648 55.7713L43.6442 55.6323L43.6442 51.898C44.4532 51.7918 45.2704 51.6283 46.0794 51.3995C51.9712 49.7407 53.2541 46.0636 53.1316 42.697C53.0008 39.265 54.104 37.9331 55.6811 37.3366C56.1306 37.165 56.58 37.0587 56.9886 36.9933C57.0049 37.835 57.1765 38.8156 57.5524 39.9841C57.6914 39.9841 57.8303 39.9677 57.9692 39.9514C57.5688 38.7584 57.3972 37.7778 57.389 36.9362C58.2062 36.8381 58.7864 36.8953 58.7864 36.8953C58.7864 36.8953 58.2389 36.6011 57.4544 35.9474C57.7159 34.3213 58.6883 33.3244 59.6852 32.303C60.2327 31.7391 60.7966 31.159 61.246 30.4726L60.8947 30.2438C60.4697 30.8975 59.9141 31.4695 59.3829 32.0088C58.4105 33.0057 57.4299 34.0189 57.0948 35.6369C56.7761 35.3509 56.4329 35.0159 56.0897 34.6236C54.6351 32.9975 52.7638 34.1906 50.0999 36.6747C47.4277 39.1588 44.0773 39.2405 40.8005 35.8902C36.4776 31.4613 32.7023 31.4858 30.1201 31.7391C31.8852 32.4909 32.5062 34.1497 33.4051 38.3498C34.3448 42.7624 36.7146 44.7562 39.9506 45.034C38.447 45.2792 38.063 45.4835 35.6441 47.1504C33.7565 48.4497 31.1089 48.0411 30.0302 47.7959C31.9996 48.4088 34.3367 50.4844 36.4286 51.2034C37.6462 51.6202 38.9292 51.8817 40.2448 51.9879L40.2448 55.567L28.6328 55.3137L28.6328 57.8141L49.7566 57.3483L53.9487 57.8141L53.9487 59.7589C53.9487 60.0694 54.1939 60.3146 54.5044 60.3146L60.9274 60.3146C61.2379 60.3146 61.483 60.0613 61.483 59.7589L61.483 53.3934C61.483 53.0829 61.2297 52.8377 60.9274 52.8377" fill="white"/>
<path d="M28.0448 57.3891C28.0448 57.9121 27.6771 58.3451 27.2277 58.3451L26.7374 58.3451C26.288 58.3451 25.9121 57.9202 25.9121 57.3891L25.9121 55.6649C25.9121 55.1338 26.2798 54.7089 26.7374 54.7089L27.2277 54.7089C27.6771 54.7089 28.0448 55.1338 28.0448 55.6649L28.0448 57.3891Z" fill="white"/>
</svg>
