<svg width="91" height="90" viewBox="0 0 91 90" fill="none" xmlns="http://www.w3.org/2000/svg">
<rect x="0.601562" y="0.640869" width="89.2044" height="89.2044" rx="17.7359" transform="rotate(-0.256047 0.601562 0.640869)" fill="#DD1367"/>
<path d="M51.7042 47.0284L39.1008 47.0284C39.0232 47.0284 38.9668 47.099 38.9668 47.1836L38.9668 50.971C38.9668 51.0556 39.0303 51.1261 39.1008 51.1261L51.7042 51.1261C51.7818 51.1261 51.8453 51.0556 51.8453 50.971L51.8453 47.1836C51.8453 47.099 51.7818 47.0284 51.7042 47.0284Z" fill="white"/>
<path d="M51.7042 38.9662L39.1008 38.9662C39.0232 38.9662 38.9668 39.0367 38.9668 39.1213L38.9668 42.9087C38.9668 42.9934 39.0303 43.0639 39.1008 43.0639L51.7042 43.0639C51.7818 43.0639 51.8453 42.9934 51.8453 42.9087L51.8453 39.1213C51.8453 39.0367 51.7818 38.9662 51.7042 38.9662Z" fill="white"/>
<path d="M51.5272 33.2403L45.4758 27.189C45.4335 27.1466 45.37 27.1466 45.3277 27.189L39.2764 33.2403C39.2129 33.3038 39.2552 33.4166 39.3469 33.4166L51.4496 33.4166C51.5413 33.4166 51.5906 33.3038 51.5272 33.2403Z" fill="white"/>
<path d="M57.2037 51.1683L63.255 45.117C63.2973 45.0746 63.2973 45.0112 63.255 44.9688L57.2037 38.9175C57.1402 38.854 57.0273 38.8964 57.0273 38.988L57.0273 51.0907C57.0273 51.1824 57.1402 51.2318 57.2037 51.1683Z" fill="white"/>
<path d="M39.2786 56.8464L45.3299 62.8977C45.3722 62.94 45.4357 62.94 45.4781 62.8977L51.5294 56.8464C51.5929 56.7829 51.5505 56.67 51.4588 56.67L39.3562 56.67C39.2645 56.67 39.2151 56.7829 39.2786 56.8464Z" fill="white"/>
<path d="M33.5987 38.917L27.5474 44.9684C27.505 45.0107 27.505 45.0742 27.5474 45.1165L33.5987 51.1678C33.6622 51.2313 33.775 51.189 33.775 51.0973L33.775 38.9946C33.775 38.9029 33.6622 38.8536 33.5987 38.917Z" fill="white"/>
</svg>
