<svg width="91" height="90" viewBox="0 0 91 90" fill="none" xmlns="http://www.w3.org/2000/svg">
<rect x="0.804688" y="0.640869" width="89.2044" height="89.2044" rx="17.7359" transform="rotate(-0.256047 0.804688 0.640869)" fill="#BF8B2E"/>
<path d="M65.0836 34.4585C61.3641 31.5176 56.4251 31.457 54.6173 31.8895L54.4097 31.9414C52.3251 32.4344 49.0122 33.2475 45.1284 38.0655C45.1111 38.0914 45.0852 38.1174 45.0592 38.1433L45.0073 38.2039C44.9727 38.2558 44.9381 38.3163 44.9381 38.3942C44.9381 38.4547 44.9554 38.5066 44.9814 38.5585L45.0679 38.7056C45.5523 39.5187 46.1664 40.5653 46.6854 41.5341C46.6854 41.5427 46.694 41.5514 46.7027 41.56C46.7546 41.6638 46.867 41.7417 46.9968 41.7417C47.0833 41.7417 47.1698 41.7071 47.2303 41.6465C47.2563 41.6119 47.2822 41.5773 47.2995 41.5514C50.7421 36.7853 53.4496 36.1279 55.2833 35.7041L55.4996 35.6522C56.4511 35.4273 60.0667 35.4359 62.6703 37.4946C64.703 39.1035 65.741 41.6638 65.741 45.0978C65.741 50.8672 62.9384 53.1162 60.5857 53.9985C56.9441 55.3652 53.4409 53.54 53.4149 53.5227L53.2593 53.4449C51.2525 52.5713 48.2683 50.7634 45.4485 45.1065C39.7742 33.706 35.0254 32.6334 31.8855 31.9241L31.7212 31.8895C30.294 31.5608 25.3203 31.3359 21.4192 34.4499C19.3779 36.076 16.9473 39.2419 16.9473 45.0718C16.9473 48.6269 17.6739 50.971 19.5509 53.4362C19.9661 53.9985 24.1699 59.396 32.2921 57.839C33.5895 57.5882 35.3541 56.9654 37.2917 55.5209L39.0822 57.1297C39.1946 57.2335 39.3849 57.2249 39.4887 57.1124C39.5406 57.0605 39.5579 56.9913 39.5579 56.9221L39.5579 56.8962L40.8468 48.9556L40.8468 48.8691C40.8468 48.7913 40.8122 48.7134 40.7516 48.6615C40.6997 48.6096 40.6305 48.5923 40.5613 48.5923L40.5094 48.5923L40.4229 48.6096L32.8197 50.7375L32.6813 50.7634C32.6294 50.7721 32.5775 50.8067 32.5343 50.8499C32.4218 50.971 32.4305 51.1527 32.5602 51.2651L32.6467 51.3516L34.3507 52.8913C33.2522 53.6006 32.2921 53.9293 31.5568 54.0763C25.675 55.2008 22.7772 51.343 22.6648 51.1959L22.6216 51.144C21.2549 49.3535 20.7965 47.8225 20.7965 45.0978C20.7965 41.6465 21.8085 39.0862 23.8152 37.4946C26.3583 35.4619 29.8615 35.4532 30.8562 35.6781L31.0292 35.7214C33.6068 36.3009 37.1273 37.1054 41.9885 46.8624C44.5143 51.9312 47.6715 55.2441 51.6504 56.9913C52.1607 57.2508 54.574 58.3926 57.7053 58.3926C59.0201 58.3926 60.4559 58.1936 61.9264 57.6401C64.2273 56.7837 69.5988 53.8428 69.5988 45.1237C69.5988 39.2938 67.1336 36.1279 65.0576 34.4931" fill="white"/>
</svg>
