<svg width="90" height="90" viewBox="0 0 90 90" fill="none" xmlns="http://www.w3.org/2000/svg">
<rect x="0.203125" y="0.640869" width="89.2044" height="89.2044" rx="17.7359" transform="rotate(-0.256047 0.203125 0.640869)" fill="#FD9D24"/>
<path d="M22.8612 52.5226L32.8014 52.5226C32.937 52.5226 33.0455 52.4141 33.0455 52.2785C33.0455 52.2175 33.0184 52.1564 32.9777 52.1158L32.9641 52.1022L28.0143 45.7014L27.9669 45.6472C27.9194 45.5997 27.8584 45.5658 27.7838 45.5658C27.7228 45.5658 27.6685 45.5929 27.6211 45.6268L27.594 45.6607L27.5465 45.715L22.7188 52.048L22.6442 52.1361C22.6171 52.1768 22.6035 52.2243 22.6035 52.2717C22.6035 52.4073 22.712 52.5158 22.8476 52.5158" fill="black"/>
<path d="M32.773 53.4247L22.8125 53.4247C22.6769 53.4247 22.5684 53.5332 22.5684 53.6688L22.5684 61.4664C22.5684 61.602 22.6769 61.7105 22.8125 61.7105L26.0196 61.7105L26.0196 56.8082C26.0196 56.6725 26.1281 56.5641 26.2637 56.5641L29.2404 56.5641C29.376 56.5641 29.4845 56.6725 29.4845 56.8082L29.4845 61.7105L32.773 61.7105C32.9086 61.7105 33.0171 61.602 33.0171 61.4664L33.0171 53.6688C33.0171 53.5332 32.9086 53.4247 32.773 53.4247Z" fill="black"/>
<path d="M66.3095 54.5768C66.3095 54.7056 66.201 54.8141 66.0654 54.8141L63.1227 54.8141C62.987 54.8141 62.8786 54.7124 62.8786 54.5768L62.8786 52.7867C62.8786 52.6579 62.987 52.5494 63.1227 52.5494L66.0654 52.5494C66.201 52.5494 66.3095 52.6511 66.3095 52.7867L66.3095 54.5768ZM66.3095 57.8857C66.3095 58.0145 66.201 58.123 66.0654 58.123L63.1227 58.123C62.987 58.123 62.8786 58.0213 62.8786 57.8857L62.8786 56.0956C62.8786 55.9668 62.987 55.8583 63.1227 55.8583L66.0654 55.8583C66.201 55.8583 66.3095 55.96 66.3095 56.0956L66.3095 57.8857ZM61.8072 54.5768C61.8072 54.7056 61.6988 54.8141 61.5631 54.8141L58.6204 54.8141C58.4848 54.8141 58.3763 54.7124 58.3763 54.5768L58.3763 52.7867C58.3763 52.6579 58.4848 52.5494 58.6204 52.5494L61.5631 52.5494C61.6988 52.5494 61.8072 52.6511 61.8072 52.7867L61.8072 54.5768ZM61.8072 57.8857C61.8072 58.0145 61.6988 58.123 61.5631 58.123L58.6204 58.123C58.4848 58.123 58.3763 58.0213 58.3763 57.8857L58.3763 56.0956C58.3763 55.9668 58.4848 55.8583 58.6204 55.8583L61.5631 55.8583C61.6988 55.8583 61.8072 55.96 61.8072 56.0956L61.8072 57.8857ZM67.1977 51.3832L57.3389 51.3832C57.2033 51.3832 57.1016 51.4849 57.1016 51.6205L57.1016 61.5743C57.1016 61.7031 57.2101 61.8116 57.3389 61.8116L67.1977 61.8116C67.3333 61.8116 67.4419 61.7099 67.4419 61.5743L67.4419 51.6205C67.4419 51.4917 67.3333 51.3832 67.1977 51.3832Z" fill="black"/>
<path d="M42.875 35.354C42.875 35.4218 42.8208 35.4828 42.7462 35.4828L40.5357 35.4828C40.4679 35.4828 40.4069 35.4286 40.4069 35.354L40.4069 32.8927C40.4069 32.8249 40.4611 32.7638 40.5357 32.7638L42.7462 32.7638C42.814 32.7638 42.875 32.8181 42.875 32.8927L42.875 35.354ZM42.875 41.0022C42.875 41.07 42.8208 41.131 42.7462 41.131L40.5357 41.131C40.4679 41.131 40.4069 41.0767 40.4069 41.0022L40.4069 38.5408C40.4069 38.473 40.4611 38.4188 40.5357 38.4188L42.7462 38.4188C42.814 38.4188 42.875 38.473 42.875 38.5408L42.875 41.0022ZM42.875 46.6571C42.875 46.7249 42.8208 46.7859 42.7462 46.7859L40.5357 46.7859C40.4679 46.7859 40.4069 46.7317 40.4069 46.6571L40.4069 44.1958C40.4069 44.128 40.4611 44.0669 40.5357 44.0669L42.7462 44.0669C42.814 44.0669 42.875 44.1212 42.875 44.1958L42.875 46.6571ZM42.875 52.312C42.875 52.3866 42.8208 52.4409 42.7462 52.4409L40.5357 52.4409C40.4679 52.4409 40.4069 52.3866 40.4069 52.312L40.4069 49.8507C40.4069 49.7829 40.4611 49.7219 40.5357 49.7219L42.7462 49.7219C42.814 49.7219 42.875 49.7761 42.875 49.8507L42.875 52.312ZM42.875 57.967C42.875 58.0348 42.8208 58.0958 42.7462 58.0958L40.5357 58.0958C40.4679 58.0958 40.4069 58.0416 40.4069 57.967L40.4069 55.5057C40.4069 55.4379 40.4611 55.3768 40.5357 55.3768L42.7462 55.3768C42.814 55.3768 42.875 55.4311 42.875 55.5057L42.875 57.967ZM38.5422 35.354C38.5422 35.4218 38.488 35.4828 38.4134 35.4828L36.203 35.4828C36.1352 35.4828 36.0742 35.4286 36.0742 35.354L36.0742 32.8927C36.0742 32.8249 36.1284 32.7638 36.203 32.7638L38.4134 32.7638C38.4812 32.7638 38.5422 32.8181 38.5422 32.8927L38.5422 35.354ZM38.5422 41.0022C38.5422 41.07 38.488 41.131 38.4134 41.131L36.203 41.131C36.1352 41.131 36.0742 41.0767 36.0742 41.0022L36.0742 38.5408C36.0742 38.473 36.1284 38.4188 36.203 38.4188L38.4134 38.4188C38.4812 38.4188 38.5422 38.473 38.5422 38.5408L38.5422 41.0022ZM38.5422 46.6571C38.5422 46.7249 38.488 46.7859 38.4134 46.7859L36.203 46.7859C36.1352 46.7859 36.0742 46.7317 36.0742 46.6571L36.0742 44.1958C36.0742 44.128 36.1284 44.0669 36.203 44.0669L38.4134 44.0669C38.4812 44.0669 38.5422 44.1212 38.5422 44.1958L38.5422 46.6571ZM38.5422 52.312C38.5422 52.3866 38.488 52.4409 38.4134 52.4409L36.203 52.4409C36.1352 52.4409 36.0742 52.3866 36.0742 52.312L36.0742 49.8507C36.0742 49.7829 36.1284 49.7219 36.203 49.7219L38.4134 49.7219C38.4812 49.7219 38.5422 49.7761 38.5422 49.8507L38.5422 52.312ZM38.5422 57.967C38.5422 58.0348 38.488 58.0958 38.4134 58.0958L36.203 58.0958C36.1352 58.0958 36.0742 58.0416 36.0742 57.967L36.0742 55.5057C36.0742 55.4379 36.1284 55.3768 36.203 55.3768L38.4134 55.3768C38.4812 55.3768 38.5422 55.4311 38.5422 55.5057L38.5422 57.967ZM44.2785 28.2751L34.6299 28.2751C34.5011 28.2751 34.3926 28.3769 34.3926 28.5125L34.3926 61.4928C34.3926 61.6217 34.5011 61.7302 34.6299 61.7302L44.2785 61.7302C44.4074 61.7302 44.5159 61.6217 44.5159 61.4928L44.5159 28.5125C44.5159 28.3836 44.4074 28.2751 44.2785 28.2751Z" fill="black"/>
<path d="M67.2327 48.204L57.306 48.204C57.1974 48.204 57.1094 48.292 57.1094 48.4006L57.1094 50.3873C57.1094 50.4959 57.1974 50.5839 57.306 50.5839L67.2327 50.5839C67.3413 50.5839 67.4293 50.4959 67.4293 50.3873L67.4293 48.4006C67.4293 48.292 67.3413 48.204 67.2327 48.204Z" fill="black"/>
<path d="M54.8356 44.5752C54.8356 44.704 54.7271 44.8125 54.5983 44.8125L51.7234 44.8125C51.5945 44.8125 51.486 44.7108 51.486 44.5752L51.486 42.7784C51.486 42.6427 51.5945 42.541 51.7234 42.541L54.5983 42.541C54.7271 42.541 54.8356 42.6427 54.8356 42.7784L54.8356 44.5752ZM54.8356 47.9044C54.8356 48.0332 54.7271 48.1417 54.5983 48.1417L51.7234 48.1417C51.5945 48.1417 51.486 48.0332 51.486 47.9044L51.486 46.1076C51.486 45.9788 51.5945 45.8703 51.7234 45.8703L54.5983 45.8703C54.7271 45.8703 54.8356 45.972 54.8356 46.1076L54.8356 47.9044ZM54.8356 51.2336C54.8356 51.3625 54.7271 51.471 54.5983 51.471L51.7234 51.471C51.5945 51.471 51.486 51.3625 51.486 51.2336L51.486 49.43C51.486 49.3012 51.5945 49.1927 51.7234 49.1927L54.5983 49.1927C54.7271 49.1927 54.8356 49.2944 54.8356 49.43L54.8356 51.2336ZM54.8356 54.5561C54.8356 54.6849 54.7271 54.7934 54.5983 54.7934L51.7234 54.7934C51.5945 54.7934 51.486 54.6917 51.486 54.5561L51.486 52.7593C51.486 52.6304 51.5945 52.5219 51.7234 52.5219L54.5983 52.5219C54.7271 52.5219 54.8356 52.6236 54.8356 52.7593L54.8356 54.5561ZM54.8356 57.8853C54.8356 58.0141 54.7271 58.1226 54.5983 58.1226L51.7234 58.1226C51.5945 58.1226 51.486 58.0209 51.486 57.8853L51.486 56.0885C51.486 55.9597 51.5945 55.8512 51.7234 55.8512L54.5983 55.8512C54.7271 55.8512 54.8356 55.9529 54.8356 56.0885L54.8356 57.8853ZM50.4486 43.9446L50.4486 47.9112C50.4486 48.04 50.3401 48.1485 50.2113 48.1485L47.3364 48.1485C47.2075 48.1485 47.0991 48.04 47.0991 47.9112L47.0991 47.4094C47.0991 47.4094 47.1058 47.3484 47.1194 47.3213C47.1194 47.3077 47.1194 47.3077 47.133 47.2942C47.133 47.2806 47.1465 47.2738 47.1533 47.2603C47.1533 47.2467 47.1737 47.2331 47.1804 47.2196C47.5466 46.6907 49.2078 44.6498 49.9062 43.7954L49.974 43.7141C50.0282 43.653 50.1028 43.6124 50.1842 43.6124C50.3198 43.6124 50.4215 43.7073 50.4486 43.8293L50.4486 43.9378L50.4486 43.9446ZM50.4419 51.2336C50.4419 51.3625 50.3334 51.471 50.2045 51.471L47.3296 51.471C47.2008 51.471 47.0923 51.3625 47.0923 51.2336L47.0923 49.43C47.0923 49.3012 47.2008 49.1927 47.3296 49.1927L50.2045 49.1927C50.3334 49.1927 50.4419 49.2944 50.4419 49.43L50.4419 51.2336ZM50.4419 54.5561C50.4419 54.6849 50.3334 54.7934 50.2045 54.7934L47.3296 54.7934C47.2008 54.7934 47.0923 54.6917 47.0923 54.5561L47.0923 52.7593C47.0923 52.6304 47.2008 52.5219 47.3296 52.5219L50.2045 52.5219C50.3334 52.5219 50.4419 52.6236 50.4419 52.7593L50.4419 54.5561ZM50.4419 57.8853C50.4419 58.0141 50.3334 58.1226 50.2045 58.1226L47.3296 58.1226C47.2008 58.1226 47.0923 58.0209 47.0923 57.8853L47.0923 56.0885C47.0923 55.9597 47.2008 55.8512 47.3296 55.8512L50.2045 55.8512C50.3334 55.8512 50.4419 55.9529 50.4419 56.0885L50.4419 57.8853ZM51.9403 41.0358L52.0082 40.9476C52.6591 40.1136 53.7507 38.7711 54.2864 38.1134L54.3542 38.032C54.4084 37.971 54.483 37.9303 54.5644 37.9303C54.7 37.9303 54.8017 38.0252 54.8288 38.1473L54.8288 41.1917C54.8288 41.3409 54.7136 41.4562 54.5644 41.4629C54.5644 41.4629 54.5576 41.4629 54.5508 41.4629C54.5441 41.4629 54.5441 41.4629 54.5373 41.4629L52.1709 41.4629C52.1709 41.4629 52.1641 41.4629 52.1573 41.4629C52.1505 41.4629 52.1505 41.4629 52.1438 41.4629C52.0014 41.4562 51.8793 41.3409 51.8793 41.1917C51.8793 41.1307 51.8997 41.0764 51.9336 41.029M55.9341 34.4994C55.9001 34.3909 55.8052 34.3163 55.69 34.3163C55.6357 34.3163 55.595 34.3366 55.5543 34.3637C55.5543 34.3637 55.5408 34.3705 55.534 34.3773L55.4526 34.479L45.9667 46.5076L45.9193 46.5687C45.8718 46.6161 45.8379 46.6839 45.8379 46.7585L45.8379 61.54C45.8379 61.6688 45.9464 61.7773 46.0752 61.7773L55.7171 61.7773C55.8459 61.7773 55.9544 61.6756 55.9544 61.54L55.9544 34.6011C55.9544 34.5672 55.9476 34.5333 55.9341 34.4994Z" fill="black"/>
</svg>
