<svg width="90" height="90" viewBox="0 0 90 90" fill="none" xmlns="http://www.w3.org/2000/svg">
<rect y="0.640137" width="89.2044" height="89.2044" rx="17.7359" fill="#E5243B"/>
<path d="M66.6934 34.7486C66.6934 33.5658 67.6538 32.6053 68.8366 32.6053C70.0193 32.6053 70.9719 33.5658 70.9719 34.7486C70.9719 35.9313 70.0114 36.8918 68.8366 36.8918C67.6618 36.8918 66.6934 35.9313 66.6934 34.7486Z" fill="white"/>
<path d="M23.6848 34.7486C23.6848 33.5658 22.7243 32.6053 21.5415 32.6053C20.3588 32.6053 19.4062 33.5658 19.4062 34.7486C19.4062 35.9313 20.3667 36.8918 21.5415 36.8918C22.7164 36.8918 23.6848 35.9313 23.6848 34.7486Z" fill="white"/>
<path d="M71.3368 37.7173C72.7894 37.8522 73.9325 39.0747 73.9325 40.5591V46.4966C73.9325 46.957 73.5594 47.3301 73.099 47.3301C72.6386 47.3301 72.2655 46.957 72.2655 46.4966V41.4005C72.2655 41.21 72.21 40.948 71.8607 40.948C71.6146 40.948 71.567 41.202 71.5591 41.3687V56.6571C71.5591 57.316 71.0272 57.8478 70.3684 57.8478C69.7095 57.8478 69.1698 57.316 69.1698 56.6571V47.8461C69.1698 47.7508 69.138 47.4968 68.8284 47.4968C68.5268 47.4968 68.4871 47.7508 68.4871 47.8461V56.6571C68.4871 57.316 67.9553 57.8478 67.2964 57.8478C66.6376 57.8478 66.1057 57.316 66.1057 56.6571V41.3687C66.1057 41.202 66.0422 40.948 65.8041 40.948C65.4548 40.948 65.3993 41.21 65.3993 41.4005V46.4966C65.3993 46.957 65.0262 47.3301 64.5658 47.3301C64.1054 47.3301 63.7402 46.957 63.7402 46.4966V40.5591C63.7402 39.0667 64.8833 37.8443 66.3359 37.7173C66.3836 37.7173 66.4391 37.7014 66.4947 37.7014H71.1781C71.2416 37.7014 71.2892 37.7014 71.3447 37.7173" fill="white"/>
<path d="M53.9528 35.8755C53.9528 34.7562 53.0478 33.8434 51.9286 33.8434C50.8093 33.8434 49.8965 34.7562 49.8965 35.8755C49.8965 36.9947 50.8014 37.9076 51.9286 37.9076C53.0558 37.9076 53.9528 37.0027 53.9528 35.8755Z" fill="white"/>
<path d="M47.8398 40.4715L46.1569 45.9645C46.1569 45.9645 45.8553 46.9726 46.7126 47.2187C47.5619 47.4727 47.8239 46.4884 47.8239 46.4884L49.1813 41.9083C49.1813 41.9083 49.2527 41.559 49.5226 41.6304C49.7846 41.7098 49.6893 42.0829 49.6893 42.0829L47.3238 50.6717H49.5226V56.8236C49.5226 57.403 49.9989 57.8793 50.5783 57.8793C51.1578 57.8793 51.6341 57.403 51.6341 56.8236V50.6717H52.2374V56.8236C52.2374 57.403 52.7057 57.8793 53.2931 57.8793C53.8805 57.8793 54.3488 57.403 54.3488 56.8236V50.6717H56.5476L54.1822 42.0829C54.1822 42.0829 54.0869 41.7019 54.3488 41.6304C54.6108 41.551 54.6902 41.9083 54.6902 41.9083L56.0476 46.4884C56.0476 46.4884 56.3016 47.4727 57.1509 47.2187C58.0082 46.9647 57.7066 45.9645 57.7066 45.9645L56.0237 40.4715C56.0237 40.4715 55.4205 38.8839 54.0869 38.8839H49.7846C48.451 38.8839 47.8477 40.4715 47.8477 40.4715" fill="white"/>
<path d="M41.8063 35.8755C41.8063 34.7562 40.9013 33.8434 39.7821 33.8434C38.6629 33.8434 37.75 34.7562 37.75 35.8755C37.75 36.9947 38.6549 37.9076 39.7821 37.9076C40.9093 37.9076 41.8063 37.0027 41.8063 35.8755Z" fill="white"/>
<path d="M35.6874 40.4715L34.0046 45.9645C34.0046 45.9645 33.7029 46.9726 34.5602 47.2187C35.4096 47.4727 35.6636 46.4884 35.6636 46.4884L37.021 41.9083C37.021 41.9083 37.0924 41.559 37.3623 41.6304C37.6243 41.7098 37.529 42.0829 37.529 42.0829L35.1635 50.6717H37.3623V56.8236C37.3623 57.403 37.8386 57.8793 38.4181 57.8793C38.9975 57.8793 39.4738 57.403 39.4738 56.8236V50.6717H40.0771V56.8236C40.0771 57.403 40.5454 57.8793 41.1328 57.8793C41.7202 57.8793 42.1886 57.403 42.1886 56.8236V50.6717H44.3874L42.0219 42.0829C42.0219 42.0829 41.9187 41.7019 42.1886 41.6304C42.4505 41.551 42.5299 41.9083 42.5299 41.9083L43.8873 46.4884C43.8873 46.4884 44.1492 47.4727 44.9986 47.2187C45.8559 46.9647 45.5542 45.9645 45.5542 45.9645L43.8714 40.4715C43.8714 40.4715 43.2681 38.8839 41.9346 38.8839H37.6322C36.2986 38.8839 35.6954 40.4715 35.6954 40.4715" fill="white"/>
<path d="M60.7728 47.227C61.7095 47.227 62.4636 46.4729 62.4636 45.5362C62.4636 44.5996 61.7095 43.8455 60.7728 43.8455C59.8361 43.8455 59.082 44.5996 59.082 45.5362C59.082 46.4729 59.8361 47.227 60.7728 47.227Z" fill="white"/>
<path d="M56.7221 52.4732C56.6428 52.6717 56.5713 53.0924 56.9682 53.2749C57.4365 53.4893 57.6906 53.0368 57.6906 53.0368L58.6114 50.1077C58.6114 50.1077 58.7701 49.9093 58.7701 50.1077V56.9978C58.7701 57.4741 59.1591 57.8631 59.6353 57.8631C60.1116 57.8631 60.5006 57.4741 60.5006 56.9978V54.2751C60.5006 54.2751 60.453 53.8941 60.7625 53.8941C61.0721 53.8941 61.0245 54.2751 61.0245 54.2751V56.9978C61.0245 57.4741 61.4134 57.8631 61.8897 57.8631C62.366 57.8631 62.7549 57.4741 62.7549 56.9978V50.1077C62.7549 49.9013 62.8581 50.0522 62.8581 50.0522L63.5805 52.0525C63.5805 52.0525 63.8901 52.9495 63.9853 52.9892C64.3108 53.1241 64.6839 52.9733 64.8188 52.6399C64.9061 52.4256 64.8744 52.1954 64.7474 52.0208C64.7235 51.9493 63.6757 49.3616 63.5487 49.0043C63.1677 47.893 62.4771 47.901 61.8103 47.8851C61.1435 47.8692 60.7467 47.8851 60.7467 47.8851C60.7467 47.8851 60.318 47.8692 59.4369 47.893C58.5558 47.9169 58.278 48.3693 57.3095 50.8698C57.1667 51.227 56.7063 52.3938 56.6983 52.4653L56.7221 52.4732Z" fill="white"/>
<path d="M19.043 37.7173C17.5903 37.8522 16.4473 39.0747 16.4473 40.5591V46.4966C16.4473 46.957 16.8203 47.3301 17.2807 47.3301C17.7411 47.3301 18.1142 46.957 18.1142 46.4966V41.4005C18.1142 41.21 18.1698 40.948 18.5191 40.948C18.7572 40.948 18.8128 41.202 18.8207 41.3687V56.6571C18.8207 57.316 19.3525 57.8478 20.0114 57.8478C20.6702 57.8478 21.2021 57.316 21.2021 56.6571V47.8461C21.2021 47.7508 21.2418 47.4968 21.5434 47.4968C21.845 47.4968 21.8847 47.7508 21.8847 47.8461V56.6571C21.8847 57.316 22.4166 57.8478 23.0754 57.8478C23.7343 57.8478 24.2661 57.316 24.2661 56.6571V41.3687C24.2661 41.202 24.3296 40.948 24.5677 40.948C24.917 40.948 24.9726 41.21 24.9726 41.4005V46.4966C24.9726 46.957 25.3457 47.3301 25.8061 47.3301C26.2665 47.3301 26.6395 46.957 26.6395 46.4966V40.5591C26.6395 39.0667 25.4965 37.8443 24.0438 37.7173C23.9962 37.7173 23.9406 37.7014 23.8851 37.7014H19.2017C19.1382 37.7014 19.0906 37.7014 19.035 37.7173" fill="white"/>
<path d="M17.1766 47.369L15.2715 57.4502" stroke="white" stroke-width="0.85377" stroke-miterlimit="10" stroke-linecap="round"/>
<path d="M27.6645 46.3459C27.5534 46.1713 27.3629 46.0602 27.1406 46.0602C26.7993 46.0602 26.5215 46.338 26.5215 46.6714C26.5215 46.7667 26.585 46.9413 26.585 46.9413L28.2916 50.0212C28.2916 50.0212 28.3948 50.2355 28.3948 50.426V57.0383C28.3948 57.4987 28.7679 57.8718 29.2283 57.8718C29.6887 57.8718 30.0539 57.4987 30.0539 57.0383V54.4267C30.0539 54.4267 30.0062 54.0616 30.3079 54.0616C30.6095 54.0616 30.5619 54.4267 30.5619 54.4267V57.0383C30.5619 57.4987 30.935 57.8718 31.3954 57.8718C31.8558 57.8718 32.2288 57.4987 32.2288 57.0383V50.426C32.2288 50.2355 32.332 50.0212 32.332 50.0212L33.9037 47.1794C33.9037 47.1794 34.0942 46.7667 34.0942 46.6714C34.0942 46.3301 33.8164 46.0602 33.4751 46.0602C33.2528 46.0602 33.0623 46.1792 32.9512 46.3459C32.9036 46.3856 32.1098 47.7906 31.8558 48.0447C31.5779 48.3225 31.3319 48.2907 31.3319 48.2907H29.2839C29.2839 48.2907 29.0378 48.3225 28.76 48.0447C28.498 47.7827 27.7122 46.3777 27.6645 46.338V46.3459Z" fill="white"/>
<path d="M30.306 47.227C31.2427 47.227 31.9968 46.4729 31.9968 45.5362C31.9968 44.5996 31.2427 43.8455 30.306 43.8455C29.3693 43.8455 28.6152 44.5996 28.6152 45.5362C28.6152 46.4729 29.3693 47.227 30.306 47.227Z" fill="white"/>
<path d="M30.3062 49.6005L32.2193 50.9896L33.1242 54.3315H30.3062H27.4883L28.4011 50.9896L30.3062 49.6005Z" fill="white"/>
</svg>
