<svg width="91" height="91" viewBox="0 0 91 91" fill="none" xmlns="http://www.w3.org/2000/svg">
<rect x="0.804688" y="1.03882" width="89.2044" height="89.2044" rx="17.7359" transform="rotate(-0.256047 0.804688 1.03882)" fill="#4C9F38"/>
<path d="M71.165 46.4596C71.165 44.3159 69.7881 42.5712 67.6991 42.5712C66.6586 42.5712 65.3989 43.7134 64.7183 44.4176C64.0376 43.7134 62.864 42.5712 61.8157 42.5712C59.7267 42.5712 58.2715 44.308 58.2715 46.4596C58.2715 47.5314 58.694 48.5016 59.3746 49.2057L64.7183 54.565L70.0541 49.2135C70.7347 48.5094 71.165 47.5314 71.165 46.4596Z" fill="white"/>
<path d="M48.4061 63.3039C48.4061 63.3039 48.367 63.3039 48.3513 63.3039C47.9445 63.2805 47.6081 62.9753 47.5377 62.5763L44.8228 46.7645L40.7075 54.3927C40.5275 54.7291 40.152 54.909 39.7843 54.8386C39.4088 54.776 39.1193 54.4709 39.0723 54.0954L37.3276 41.8903L34.1355 49.0647C33.9947 49.3776 33.6818 49.5889 33.3375 49.5889L20.9212 49.5889C20.4361 49.5889 20.0449 49.1977 20.0449 48.7126C20.0449 48.2275 20.4361 47.8364 20.9212 47.8364L32.7664 47.8364L36.9677 38.3931C37.1242 38.0332 37.4997 37.8298 37.8909 37.8845C38.2743 37.9393 38.5794 38.2444 38.642 38.6278L40.4415 51.2162L44.4942 43.6976C44.6741 43.369 45.0419 43.189 45.4096 43.2516C45.7773 43.3142 46.0668 43.6037 46.1294 43.9714L48.6408 58.6175L57.8024 28.1752C57.9041 27.831 58.2093 27.5806 58.577 27.5571C58.9369 27.5337 59.2811 27.7214 59.4376 28.05L64.257 38.0488C64.4683 38.4869 64.2883 39.0111 63.8502 39.2224C63.4121 39.4336 62.8879 39.2537 62.6767 38.8155L58.8352 30.851L49.2432 62.7015C49.1337 63.0771 48.7894 63.3274 48.4061 63.3274" fill="white"/>
</svg>
