<svg width="91" height="90" viewBox="0 0 91 90" fill="none" xmlns="http://www.w3.org/2000/svg">
<rect x="0.816406" y="0.640869" width="89.2044" height="89.2044" rx="17.9314" transform="rotate(-0.256047 0.816406 0.640869)" fill="#19486A"/>
<path d="M52.1287 43.7749C54.0162 42.0233 55.2016 39.5242 55.2016 36.7534C55.2016 36.3381 55.1714 35.9304 55.1185 35.5303C58.954 35.938 61.9513 39.1996 61.9513 43.1407C61.9513 45.3831 60.9774 47.3914 59.4372 48.7957C57.9951 46.0928 55.2922 44.16 52.1211 43.7749M58.6369 53.288C58.6369 57.5085 55.2016 60.9438 50.9811 60.9438C49.607 60.9438 48.3235 60.5738 47.2061 59.9396C48.8369 58.2182 49.841 55.9004 49.841 53.356C49.841 52.7293 49.7806 52.1178 49.6598 51.5213C51.0339 52.2839 52.6195 52.7218 54.3031 52.7218C55.798 52.7218 57.2174 52.3745 58.4858 51.7629C58.584 52.2612 58.6369 52.7671 58.6369 53.2956M32.5967 53.356C32.5967 52.8124 32.6571 52.2839 32.7628 51.7705C34.0236 52.382 35.4355 52.7218 36.9304 52.7218C38.6065 52.7218 40.1845 52.2839 41.5586 51.5289C41.4529 52.1027 41.3925 52.6916 41.3925 53.288C41.3925 55.8777 42.4268 58.2258 44.103 59.9547C42.9705 60.6191 41.6567 61.0042 40.2524 61.0042C36.0319 61.0042 32.5967 57.5689 32.5967 53.3484M29.2746 43.1332C29.2746 39.1845 32.272 35.9304 36.1074 35.5227C36.0546 35.9228 36.0244 36.3306 36.0244 36.7458C36.0244 39.5469 37.2324 42.0762 39.1577 43.8278C35.9791 44.1902 33.2686 46.1154 31.8114 48.8108C30.2561 47.4065 29.2746 45.3831 29.2746 43.1332ZM45.613 29.09C48.7463 29.09 51.4492 30.9851 52.627 33.6956C49.5164 34.2467 46.9116 36.3004 45.613 39.0788C44.3068 36.3004 41.7096 34.2392 38.599 33.6956C39.7843 30.9927 42.4797 29.09 45.613 29.09ZM47.4401 46.5081C48.5047 45.9494 49.7051 45.6323 50.9811 45.6323C53.9936 45.6323 56.5908 47.3839 57.8441 49.9131C56.7795 50.4718 55.5791 50.7889 54.3031 50.7889C51.2906 50.7889 48.6934 49.0373 47.4401 46.5081ZM43.7632 46.5609C42.5023 49.0675 39.9127 50.7889 36.9228 50.7889C35.6544 50.7889 34.4615 50.4718 33.4045 49.9282C34.6654 47.4216 37.2551 45.7002 40.2449 45.7002C41.5133 45.7002 42.7062 46.0173 43.7632 46.5609ZM38.0553 35.568C41.7398 36.1191 44.5862 39.2902 44.5862 43.1332C44.5862 43.5333 44.5484 43.9259 44.488 44.311C40.8036 43.7598 37.9572 40.5888 37.9572 36.7458C37.9572 36.3457 37.9949 35.953 38.0553 35.568ZM45.6507 58.7694C44.2162 57.3802 43.3253 55.4322 43.3253 53.288C43.3253 51.1438 44.1936 49.2563 45.5828 47.8671C47.0173 49.2563 47.9082 51.2042 47.9082 53.356C47.9082 55.5078 47.0475 57.3877 45.6507 58.7769M53.2688 36.7458C53.2688 40.5813 50.4299 43.7598 46.7379 44.311C46.6775 43.9259 46.6398 43.5333 46.6398 43.1332C46.6398 39.2977 49.4786 36.1191 53.163 35.568C53.2234 35.953 53.2612 36.3457 53.2612 36.7458M63.8842 43.1332C63.8842 37.9614 59.7694 33.7409 54.6504 33.5521C53.3367 29.83 49.7806 27.1572 45.613 27.1572C41.4453 27.1572 37.8968 29.83 36.5755 33.5521C31.4566 33.7409 27.3418 37.9614 27.3418 43.1332C27.3418 46.1985 28.7914 48.9316 31.0414 50.6908C30.7997 51.5364 30.6638 52.4273 30.6638 53.3484C30.6638 58.6335 34.9674 62.9295 40.2524 62.9295C42.2607 62.9295 44.1181 62.3104 45.6658 61.2533C47.1909 62.2726 49.0181 62.8691 50.9811 62.8691C56.2661 62.8691 60.5697 58.5655 60.5697 53.2805C60.5697 52.3745 60.4413 51.4986 60.2073 50.6757C62.4496 48.9165 63.8917 46.191 63.8917 43.1332" fill="white"/>
</svg>
