<svg width="90" height="91" viewBox="0 0 90 91" fill="none" xmlns="http://www.w3.org/2000/svg">
<rect x="0.203125" y="1.03882" width="89.2044" height="89.2044" rx="17.7359" transform="rotate(-0.256047 0.203125 1.03882)" fill="#DDA63A"/>
<path d="M39.0823 61.6901L39.0823 62.7843C39.0823 62.7843 39.0823 62.8003 39.0823 62.8083C39.0823 62.8163 39.0823 62.8243 39.0823 62.8323C39.0893 63.1038 39.2859 63.3195 39.5245 63.3275C39.5245 63.3275 39.5245 63.3275 39.5316 63.3275C39.5386 63.3275 39.5386 63.3275 39.5456 63.3275L50.8338 63.3275C50.8338 63.3275 50.8338 63.3275 50.8408 63.3275C50.8408 63.3275 50.8408 63.3275 50.8478 63.3275C51.0935 63.3275 51.2901 63.0958 51.2901 62.8163L51.2901 61.5782C57.6432 59.206 62.4027 53.3513 63.4487 46.2106C63.4487 46.1946 63.4487 46.1786 63.4487 46.1707C63.4487 46.1467 63.4487 46.1227 63.4487 46.0988C63.4487 45.8112 63.2451 45.5796 62.9924 45.5796L27.0149 45.5796C26.7622 45.5796 26.5586 45.8112 26.5586 46.0988L26.5797 46.3304C27.6818 53.543 32.5677 59.4296 39.0542 61.706" fill="black"/>
<path d="M51.2912 28.0871C51.1437 28.3268 47.6688 34.0217 51.3684 38.6224C53.0672 40.7391 52.9198 42.6002 52.4354 43.8622L54.8082 43.8622C55.2856 42.0011 55.089 39.6688 53.1655 37.2726C50.4347 33.878 53.2006 29.2932 53.2427 29.2213C53.5657 28.7022 53.3972 28.0232 52.8566 27.7117C52.3161 27.4002 51.6211 27.568 51.2912 28.0871Z" fill="black"/>
<path d="M45.2745 43.8622L47.6472 43.8622C48.1246 42.0011 47.928 39.6688 45.9975 37.2726C43.2668 33.878 46.0256 29.2932 46.0748 29.2213C46.3977 28.7022 46.2292 28.0312 45.6887 27.7117C45.1551 27.4002 44.4531 27.568 44.1302 28.0871C43.9828 28.3268 40.5009 34.0217 44.2074 38.6224C45.9063 40.7391 45.7589 42.6002 45.2745 43.8622Z" fill="black"/>
<path d="M36.9759 28.0871C36.8285 28.3268 33.3466 34.0217 37.0531 38.6224C38.752 40.7391 38.6046 42.6002 38.1202 43.8622L40.4929 43.8622C40.9703 42.0011 40.7737 39.6688 38.8432 37.2726C36.1125 33.878 38.8783 29.2932 38.9205 29.2213C39.2434 28.7022 39.0679 28.0232 38.5344 27.7117C38.0008 27.4002 37.2988 27.568 36.9759 28.0871Z" fill="black"/>
</svg>
