<svg width="90" height="91" viewBox="0 0 90 91" fill="none" xmlns="http://www.w3.org/2000/svg">
<rect x="0.00976562" y="1.03882" width="89.2044" height="89.2044" rx="17.7359" transform="rotate(-0.256047 0.00976562 1.03882)" fill="#FF3A21"/>
<path d="M42.4934 50.8954C38.0529 50.8954 34.4399 47.2823 34.4399 42.8418C34.4399 38.4013 38.0529 34.7882 42.4934 34.7882C46.9339 34.7882 50.547 38.4013 50.547 42.8418C50.547 47.2823 46.9339 50.8954 42.4934 50.8954ZM57.9593 27.5552L49.6093 27.5552C49.5541 27.5552 49.5058 27.6034 49.5058 27.6586L49.5058 30.4374C49.5058 30.4994 49.5541 30.5408 49.6093 30.5408L52.9327 30.5408L49.2369 34.2366C47.3752 32.7748 45.0378 31.8991 42.4934 31.8991C36.4602 31.8991 31.5508 36.8085 31.5508 42.8418C31.5508 48.3993 35.7155 52.9915 41.0799 53.6879L41.0799 56.8873L37.784 56.8873C37.722 56.8873 37.6737 56.9356 37.6737 56.9907L37.6737 59.9695C37.6737 60.0315 37.722 60.0729 37.784 60.0729L41.0799 60.0729L41.0799 63.224C41.0799 63.286 41.1282 63.3274 41.1834 63.3274L44.1552 63.3274C44.2172 63.3274 44.2655 63.2791 44.2655 63.224L44.2655 60.0729L47.5614 60.0729C47.6235 60.0729 47.6648 60.0246 47.6648 59.9695L47.6648 56.9907C47.6648 56.9356 47.6166 56.8873 47.5614 56.8873L44.2655 56.8873L44.2655 53.6397C49.4576 52.7847 53.4292 48.2752 53.4292 42.8418C53.4292 40.4974 52.6845 38.3324 51.4296 36.5465L55.0703 32.9058L55.0703 36.0156C55.0703 36.0707 55.1185 36.119 55.1806 36.119L57.9593 36.119C58.0214 36.119 58.0697 36.0707 58.0697 36.0156L58.0697 27.6586C58.0697 27.5965 58.0214 27.5552 57.9593 27.5552Z" fill="white"/>
<path d="M47.4091 39.5386L37.6386 39.5386C37.5765 39.5386 37.5352 39.5799 37.5352 39.6351L37.5352 42.0002C37.5352 42.0553 37.5834 42.0967 37.6386 42.0967L47.4091 42.0967C47.4711 42.0967 47.5194 42.0553 47.5194 42.0002L47.5194 39.6351C47.5194 39.5799 47.4711 39.5386 47.4091 39.5386Z" fill="white"/>
<path d="M47.4091 43.7588L37.6386 43.7588C37.5765 43.7588 37.5352 43.8071 37.5352 43.8553L37.5352 46.2204C37.5352 46.2755 37.5834 46.3169 37.6386 46.3169L47.4091 46.3169C47.4711 46.3169 47.5194 46.2755 47.5194 46.2204L47.5194 43.8553C47.5194 43.8002 47.4711 43.7588 47.4091 43.7588Z" fill="white"/>
</svg>
