<svg width="91" height="90" viewBox="0 0 91 90" fill="none" xmlns="http://www.w3.org/2000/svg">
<rect x="0.611328" y="0.640869" width="89.2044" height="89.2044" rx="17.7359" transform="rotate(-0.256047 0.611328 0.640869)" fill="#56C02B"/>
<path d="M37.2013 47.9198L39.3937 47.9198C39.4853 47.9198 39.5617 47.9962 39.5617 48.0879L39.5617 53.5115C39.5617 53.6032 39.4853 53.6796 39.3937 53.6796L37.2013 53.6796C37.1096 53.6796 37.0332 53.6032 37.0332 53.5115L37.0332 48.0879C37.0332 47.9962 37.1096 47.9274 37.1936 47.9274L37.2013 47.9198Z" fill="black"/>
<path d="M63.493 56.0009L27.3302 56.0009C27.2385 56.0009 27.1621 56.0772 27.1621 56.1689L27.1621 58.3766C27.1621 58.4682 27.2385 58.537 27.3302 58.537L63.493 58.537C63.5847 58.537 63.6611 58.4606 63.6611 58.3766L63.6611 56.1689C63.6611 56.0772 63.5847 56.0009 63.493 56.0009Z" fill="black"/>
<path d="M63.493 60.3933L27.3302 60.3933C27.2385 60.3933 27.1621 60.4697 27.1621 60.5537L27.1621 62.769C27.1621 62.8607 27.2385 62.9295 27.3302 62.9295L63.493 62.9295C63.5847 62.9295 63.6611 62.853 63.6611 62.769L63.6611 60.5537C63.6611 60.4621 63.5847 60.3933 63.493 60.3933Z" fill="black"/>
<path d="M56.6106 41.9163C56.1599 41.5649 54.953 40.7399 53.4787 40.7399C52.4245 40.7399 51.4467 41.1524 50.5758 41.9775C50.5147 42.0386 50.4766 42.1149 50.4766 42.2066L50.4766 42.4052C50.4766 42.5045 50.5071 42.5962 50.5835 42.6497C50.6599 42.7108 50.7439 42.7337 50.8356 42.7108C50.8585 42.7108 50.8814 42.7031 50.9043 42.6955C50.9731 42.6726 51.0342 42.6344 51.0877 42.5809C51.2786 42.4511 51.7981 42.283 52.5391 42.283C53.28 42.283 54.8078 42.4892 56.2669 43.8413L56.2974 43.8719C56.3815 43.9559 56.4884 44.0018 56.6106 44.0018C56.7329 44.0018 56.8398 43.9559 56.9162 43.8719L56.9467 43.8413C58.4134 42.4816 59.9107 42.2754 60.6822 42.2754C61.4537 42.2754 61.9426 42.4511 62.1336 42.5733C62.1871 42.6268 62.2482 42.6649 62.3322 42.6955C62.3628 42.7031 62.4544 42.7261 62.5461 42.6955C62.676 42.6573 62.7753 42.5351 62.7753 42.3976L62.7753 42.2219C62.7753 42.1379 62.7371 42.0538 62.676 42.0004C61.7898 41.1601 60.8044 40.7323 59.735 40.7323C58.2759 40.7323 57.0766 41.542 56.6106 41.9087" fill="black"/>
<path d="M54.3647 27.5085C54.2883 27.5467 54.2348 27.6154 54.2042 27.6995L54.166 27.8217C54.1355 27.9133 54.1584 28.0203 54.2119 28.0967C54.2653 28.1731 54.3494 28.2113 54.4334 28.2189C54.4487 28.2189 54.464 28.2189 54.4792 28.2189C54.5403 28.2189 54.6014 28.2036 54.6549 28.1731C54.6855 28.1731 54.7542 28.1502 54.8764 28.1502C55.0369 28.1502 56.4959 28.2036 57.4584 29.8384L57.4737 29.8613C57.5272 29.953 57.6112 30.0217 57.7029 30.0446C57.7334 30.0523 57.7869 30.0599 57.8175 30.0599C57.8862 30.0599 57.9549 30.0446 58.0008 30.0141L58.0237 30.0141C58.5508 29.7391 59.1008 29.6016 59.6355 29.6016C60.5522 29.6016 61.148 29.9759 61.2855 30.1287C61.3161 30.1821 61.3543 30.228 61.4078 30.2662C61.4383 30.2814 61.4918 30.312 61.5224 30.3196C61.5376 30.3196 61.5606 30.3196 61.5758 30.3273C61.5835 30.3273 61.5987 30.3273 61.6064 30.3273C61.6598 30.3273 61.7057 30.3196 61.7515 30.2891C61.8279 30.2509 61.8814 30.1821 61.9043 30.1057L61.9349 29.9988C61.9349 29.9988 61.9501 29.9453 61.9501 29.9071C61.9501 29.8537 61.9349 29.7926 61.9043 29.7544C61.2015 28.5321 60.1855 28.28 59.4522 28.28C58.9098 28.28 58.4286 28.4175 58.1536 28.5245C57.8251 28.0814 56.9848 27.1571 55.7167 27.1571C55.2737 27.1571 54.8153 27.2717 54.3647 27.5009" fill="black"/>
<path d="M46.7264 33.0699L46.7264 33.2303C46.7417 33.3296 46.7951 33.4213 46.8792 33.4748C46.9479 33.5206 47.0396 33.5359 47.1236 33.513C47.1389 33.513 47.1618 33.5053 47.1771 33.4977C47.2382 33.4748 47.2917 33.429 47.3375 33.3831C47.4903 33.2685 47.9868 33.0699 48.7125 33.0699C49.4382 33.0699 50.4848 33.2609 51.5695 34.1546L51.5924 34.1776C51.6688 34.2463 51.7681 34.2845 51.8674 34.2845L51.898 34.2845C52.0125 34.2769 52.1195 34.2234 52.1806 34.147L52.2035 34.1165C53.4105 32.8407 54.7091 32.6498 55.3737 32.6498C55.8473 32.6498 56.1834 32.7491 56.3133 32.8255C56.3668 32.8713 56.4279 32.9019 56.5043 32.9248C56.5272 32.9248 56.5807 32.94 56.6341 32.9324C56.657 32.9324 56.6876 32.9248 56.7105 32.9171C56.8404 32.8713 56.9244 32.7491 56.9168 32.6039L56.9168 32.4664C56.9015 32.3824 56.8633 32.306 56.8022 32.2525C56.0841 31.6491 55.305 31.3435 54.4876 31.3435C53.2119 31.3435 52.2035 32.0921 51.7834 32.4588C51.4014 32.1991 50.4618 31.6567 49.3695 31.6567C48.407 31.6567 47.5437 32.0539 46.8028 32.8407C46.7417 32.9018 46.7187 32.9859 46.7187 33.0699" fill="black"/>
<path d="M28.4219 35.9718C28.4219 33.8023 30.1788 32.053 32.3407 32.053C32.4247 32.053 32.5087 32.0606 32.5927 32.0683C32.799 29.3259 35.083 27.1641 37.8789 27.1641C40.6748 27.1641 43.1803 29.5398 43.1803 32.4655C43.1803 33.2982 42.9817 34.0773 42.6456 34.7801C45.304 35.3683 47.2901 37.7364 47.2901 40.5628C47.2901 43.8399 44.6394 46.4906 41.3623 46.4906C41.1255 46.4906 33.4483 46.4448 33.4483 46.4448C31.1261 46.4448 29.2545 44.5656 29.2545 42.251C29.2545 41.1357 29.6899 40.1274 30.4004 39.3788C29.224 38.6989 28.4295 37.4385 28.4295 35.9794" fill="black"/>
</svg>
