<svg width="91" height="91" viewBox="0 0 91 91" fill="none" xmlns="http://www.w3.org/2000/svg">
<rect x="0.611328" y="1.03882" width="89.2044" height="89.2044" rx="17.7359" transform="rotate(-0.256047 0.611328 1.03882)" fill="#26BDE2"/>
<path d="M57.0121 33.1C56.3217 32.7979 55.4515 32.9058 54.6101 33.2438C51.4528 34.524 49.3097 34.9842 45.987 33.9414C43.8942 33.287 41.938 31.9133 39.6294 32.7548C38.0976 33.3085 36.6664 33.8335 34.9332 33.8191L33.9335 28.6842L57.7385 28.6842L57.0193 33.1L57.0121 33.1ZM48.9501 48.3467C48.9501 48.3467 47.7922 49.5333 45.9151 49.4039C44.0308 49.5333 42.8802 48.3467 42.8802 48.3467C40.9743 46.4408 41.6575 44.0747 42.3192 42.8521C42.7291 42.0826 45.6562 37.6884 45.9079 37.3144L45.9079 37.2856C45.9079 37.2856 45.9079 37.2856 45.9223 37.3L45.9223 37.2856L45.9295 37.3144C46.174 37.6884 49.1083 42.0826 49.5182 42.8521C50.1799 44.0747 50.8631 46.4408 48.9573 48.3467M58.7741 27.6557C58.7166 27.591 58.6375 27.5551 58.544 27.5551L33.1136 27.5551C33.0273 27.5551 32.9482 27.591 32.8835 27.6557C32.8259 27.7277 32.8044 27.814 32.8188 27.8931L37.0907 53.7334C37.1123 53.8772 37.2417 53.9851 37.3856 53.9851L42.6284 53.9851L42.988 58.1923L40.7801 58.1923L45.9151 63.3273L51.0645 58.1779L48.8566 58.1779L49.2162 53.9779L54.5525 53.9779C54.6963 53.9779 54.8258 53.87 54.8474 53.7262L58.8461 27.8859C58.8604 27.7996 58.8317 27.7133 58.7813 27.6485" fill="black"/>
</svg>
