<svg width="91" height="91" viewBox="0 0 91 91" fill="none" xmlns="http://www.w3.org/2000/svg">
<rect x="0.417969" y="1.03882" width="89.2044" height="89.2044" rx="17.7359" transform="rotate(-0.256047 0.417969 1.03882)" fill="#FA6622"/>
<path d="M61.8057 57.4911L54.3673 61.7825L54.3673 53.1926L61.8057 48.8941L61.8057 57.484L61.8057 57.4911ZM37.2233 61.7825L37.2233 53.8435L44.0966 57.813L37.2233 61.7825ZM36.0932 61.7825L28.6548 57.4911L28.6548 48.9012L36.0932 53.1998L36.0932 61.7897L36.0932 61.7825ZM44.0966 38.0226L37.2233 41.9921L37.2233 34.053L44.0966 38.0226ZM53.2373 41.9921L46.3639 38.0226L53.2373 34.053L53.2373 41.9921ZM46.3639 47.9214L53.8023 43.63L61.2407 47.9214L53.8023 52.2199L46.3639 47.9214ZM44.6688 46.9415L37.7954 42.972L44.6688 39.0024L44.6688 46.9415ZM52.6651 42.972L45.7917 46.9415L45.7917 39.0024L52.6651 42.972ZM44.6688 56.8331L37.7954 52.8636L44.6688 48.8941L44.6688 56.8331ZM62.6497 47.4278L54.3602 42.6429L54.3602 33.0732C54.3602 32.8729 54.2529 32.687 54.0812 32.5797L45.5128 27.6303C45.334 27.5301 45.1194 27.5301 44.9477 27.6303L36.3793 32.5797C36.2076 32.6798 36.0932 32.8658 36.0932 33.0732L36.0932 42.6429L27.8037 47.4278C27.6249 47.528 27.5176 47.7139 27.5176 47.9142L27.5176 57.813C27.5176 58.0133 27.6249 58.1992 27.8037 58.2993L36.3721 63.2487C36.458 63.2988 36.5581 63.3274 36.6511 63.3274C36.7441 63.3274 36.8442 63.2988 36.93 63.2487L45.2195 58.4638L53.509 63.2487C53.5949 63.2988 53.695 63.3274 53.788 63.3274C53.881 63.3274 53.9811 63.2988 54.0741 63.2487L62.6425 58.2993C62.8142 58.1992 62.9215 58.0133 62.9215 57.813L62.9215 47.9142C62.9215 47.7139 62.8142 47.528 62.6425 47.4278" fill="white"/>
</svg>
