<svg width="90" height="90" viewBox="0 0 90 90" fill="none" xmlns="http://www.w3.org/2000/svg">
<rect x="0.00976562" y="0.640869" width="89.2044" height="89.2044" rx="17.7359" transform="rotate(-0.256047 0.00976562 0.640869)" fill="#0A97D9"/>
<path d="M54.5843 54.3367C53.1508 54.3367 51.9896 53.1755 51.9896 51.7421C51.9896 50.3086 53.1508 49.1475 54.5843 49.1475C56.0177 49.1475 57.1869 50.3086 57.1869 51.7421C57.1869 53.1755 56.0257 54.3367 54.5843 54.3367ZM65.8676 53.1275C64.8826 51.7981 58.5402 43.71 49.6433 43.71C41.9155 43.71 33.6511 50.717 33.6511 50.717C33.6511 50.717 30.544 44.3586 24.1936 43.75C24.1535 43.75 24.1135 43.75 24.0734 43.75L24.0334 43.75C23.8973 43.75 23.7771 43.8861 23.7932 43.9982C23.8092 44.1104 23.8893 44.2305 23.8893 44.2305C24.7061 45.5919 26.7962 49.4518 26.7962 53.3197C26.7962 57.1876 24.6981 61.0715 23.8812 62.4249L23.8252 62.5129C23.8012 62.553 23.7852 62.593 23.7852 62.6491C23.7852 62.7852 23.8893 62.8893 24.0174 62.8973L24.0895 62.8973C24.0895 62.8973 24.1295 62.8973 24.1535 62.8893C30.528 62.2967 33.6431 55.9223 33.6431 55.9223C33.6431 55.9223 41.9075 62.9294 49.6353 62.9294C58.5322 62.9294 64.8827 54.8412 65.8596 53.5118C65.8837 53.4798 65.9077 53.4478 65.9237 53.4238C65.9317 53.3917 65.9477 53.3597 65.9477 53.3277C65.9477 53.2956 65.9397 53.2556 65.9237 53.2316C65.9077 53.2075 65.8837 53.1755 65.8596 53.1435" fill="white"/>
<path d="M33.0673 36.4551C33.0673 36.4551 33.1074 36.407 33.1394 36.383C33.1794 36.359 33.2275 36.335 33.2755 36.335C33.3396 36.335 33.4037 36.359 33.4517 36.407C33.4517 36.407 33.4517 36.415 33.4597 36.415C38.3126 41.0357 43.3978 37.2879 44.4548 36.415L44.5589 36.3189C44.5589 36.3189 44.623 36.3029 44.655 36.3029C44.6951 36.3029 44.7271 36.3029 44.7591 36.3189L44.8632 36.415C45.9203 37.2879 51.0054 41.0357 55.8583 36.415C55.8583 36.415 55.8583 36.415 55.8663 36.407C55.9144 36.367 55.9704 36.335 56.0345 36.335C56.0906 36.335 56.1386 36.359 56.1787 36.383C56.2107 36.399 56.2267 36.4231 56.2507 36.4551C57.1877 37.376 61.2558 40.8755 65.5561 37.1438C65.6042 37.0957 65.6282 37.0397 65.6282 36.9676L65.6282 35.1898C65.6282 35.0456 65.5161 34.9336 65.3719 34.9336C65.3559 34.9336 65.3399 34.9335 65.3159 34.9415C65.2758 34.9576 65.2358 34.9816 65.1878 35.0056C63.8664 35.6703 59.7663 37.2399 56.0505 33.7243C56.0185 33.6923 55.9785 33.6603 55.9384 33.6202C55.9064 33.6042 55.8744 33.5962 55.8263 33.5962C55.8023 33.5962 55.7702 33.5962 55.7462 33.6122C55.6902 33.6282 55.6501 33.6603 55.6181 33.7083C54.513 34.5492 49.4198 38.0006 44.8953 33.7724L44.8312 33.7083C44.7832 33.6603 44.7191 33.6362 44.647 33.6362C44.5829 33.6362 44.5189 33.6603 44.4708 33.7083L44.3988 33.7724C39.8742 38.0006 34.7811 34.5572 33.6679 33.7083C33.6359 33.6603 33.5959 33.6282 33.5398 33.6122C33.5158 33.5962 33.4837 33.5962 33.4597 33.5962C33.4197 33.5962 33.3876 33.5962 33.3556 33.6202C33.3236 33.6522 33.2835 33.6923 33.2435 33.7243C29.5277 37.2399 25.4276 35.6703 24.1063 35.0056C24.0582 34.9816 24.0182 34.9576 23.9781 34.9415C23.9541 34.9415 23.9461 34.9336 23.9301 34.9336C23.7859 34.9336 23.6738 35.0456 23.6738 35.1898L23.6738 36.9676C23.6738 37.0397 23.7059 37.1037 23.7459 37.1438C28.0382 40.8755 32.1063 37.384 33.0513 36.4551" fill="white"/>
<path d="M23.9938 28.5026C23.9938 28.5026 23.9617 28.4946 23.9457 28.4946C23.8016 28.4946 23.6895 28.6067 23.6895 28.7508L23.6895 30.5206C23.6895 30.5927 23.7215 30.6568 23.7615 30.7048C28.0539 34.4366 32.122 30.937 33.0669 30.0161C33.0829 29.9841 33.107 29.9601 33.131 29.944C33.171 29.92 33.2191 29.896 33.2751 29.896C33.3392 29.896 33.4033 29.92 33.4513 29.9681C33.4513 29.9681 33.4593 29.9761 33.4673 29.9761C38.3202 34.6048 43.4054 30.857 44.4624 29.9761L44.5665 29.88C44.5665 29.88 44.6306 29.864 44.6626 29.864C44.6947 29.864 44.7347 29.8639 44.7667 29.88L44.8708 29.9761C45.9279 30.857 51.0131 34.6048 55.8659 29.9761C55.8659 29.9761 55.8659 29.9761 55.874 29.9681C55.922 29.928 55.9781 29.896 56.0501 29.896C56.1062 29.896 56.1542 29.912 56.1943 29.944C56.2263 29.9601 56.2423 29.9921 56.2664 30.0161C57.2033 30.937 61.2714 34.4366 65.5637 30.7048C65.6118 30.6648 65.6358 30.5927 65.6358 30.5206L65.6358 28.7508C65.6358 28.6067 65.5237 28.4946 65.3795 28.4946C65.3635 28.4946 65.3475 28.4946 65.3235 28.5026C65.2835 28.5266 65.2434 28.5426 65.1954 28.5666C63.874 29.2313 59.7739 30.8009 56.0581 27.2853C56.0261 27.2533 55.9861 27.2213 55.954 27.1812C55.922 27.1652 55.89 27.1572 55.8419 27.1572C55.8179 27.1572 55.7859 27.1572 55.7618 27.1652C55.7058 27.1893 55.6657 27.2213 55.6337 27.2693C54.5286 28.1102 49.4354 31.5537 44.9109 27.3334L44.8468 27.2693C44.7988 27.2293 44.7347 27.1893 44.6626 27.1893C44.5986 27.1893 44.5265 27.2213 44.4865 27.2693L44.4144 27.3334C39.8898 31.5617 34.7967 28.1182 33.6835 27.2693C33.6515 27.2293 33.6115 27.1893 33.5554 27.1652C33.5314 27.1652 33.5074 27.1572 33.4753 27.1572C33.4433 27.1572 33.4033 27.1652 33.3712 27.1812C33.3392 27.2213 33.2992 27.2533 33.2591 27.2853C29.5434 30.8009 25.4432 29.2313 24.1219 28.5666C24.0738 28.5426 24.0338 28.5266 23.9938 28.5026Z" fill="white"/>
</svg>
