<svg width="90" height="91" viewBox="0 0 90 91" fill="none" xmlns="http://www.w3.org/2000/svg">
<rect x="0.214844" y="1.03882" width="89.2044" height="89.2044" rx="17.7359" transform="rotate(-0.256047 0.214844 1.03882)" fill="#F2BA44"/>
<path d="M45.0225 50.7998C42.0739 50.7998 39.679 48.4049 39.679 45.4562C39.679 43.0614 41.2612 41.0261 43.4331 40.35L43.4331 42.3422C42.2968 42.9175 41.5201 44.097 41.5201 45.4562C41.5201 47.3909 43.0879 48.9515 45.0153 48.9515C46.9427 48.9515 48.5177 47.3837 48.5177 45.4562C48.5177 44.0898 47.7338 42.9175 46.5975 42.335L46.5975 40.35C48.7766 41.0261 50.366 43.0542 50.366 45.4562C50.366 48.4121 47.9711 50.7998 45.0225 50.7998ZM44.2602 39.3144C44.2602 38.9692 44.6054 38.5952 45.0225 38.5952C45.4396 38.5952 45.7848 38.9692 45.7848 39.3144L45.7848 42.8384C45.7848 43.1764 45.4468 43.5504 45.0225 43.5504C44.5982 43.5504 44.2602 43.1764 44.2602 42.8384L44.2602 39.3144ZM45.0153 35.2582C39.341 35.2582 34.7383 39.861 34.7383 45.5354C34.7383 51.2097 39.341 55.8126 45.0153 55.8126C50.6896 55.8126 55.2923 51.2169 55.2923 45.5354C55.2923 39.8538 50.6896 35.2582 45.0153 35.2582Z" fill="black"/>
<path d="M33.2203 45.4411C33.2203 44.9736 32.8104 44.5996 32.4292 44.5996L27.9272 44.5996C27.546 44.5996 27.1289 44.9736 27.1289 45.4411C27.1289 45.9085 27.546 46.2897 27.9272 46.2897L32.4292 46.2897C32.8032 46.2897 33.2203 45.9085 33.2203 45.4411Z" fill="black"/>
<path d="M62.9 45.4411C62.9 44.9736 62.4901 44.5996 62.1089 44.5996L57.6069 44.5996C57.2257 44.5996 56.8086 44.9736 56.8086 45.4411C56.8086 45.9085 57.2257 46.2897 57.6069 46.2897L62.1089 46.2897C62.4829 46.2897 62.9 45.9085 62.9 45.4411Z" fill="black"/>
<path d="M45.0205 63.3275C45.488 63.3275 45.8619 62.9175 45.8619 62.5364L45.8619 58.0343C45.8619 57.6531 45.488 57.236 45.0205 57.236C44.553 57.236 44.1719 57.6531 44.1719 58.0343L44.1719 62.5364C44.1719 62.9103 44.553 63.3275 45.0205 63.3275Z" fill="black"/>
<path d="M60.5402 54.3241C60.7704 53.9214 60.5978 53.3892 60.2741 53.2022L56.369 50.9655C56.0382 50.7785 55.4916 50.9008 55.2615 51.3035C55.0314 51.7063 55.204 52.2456 55.5348 52.4326L59.4399 54.6693C59.7635 54.8563 60.3101 54.734 60.5474 54.3241" fill="black"/>
<path d="M36.1396 60.9615C36.5423 61.1916 37.0745 61.019 37.2615 60.6954L39.4981 56.7902C39.6851 56.4594 39.5629 55.9128 39.1601 55.6826C38.7574 55.4525 38.218 55.6251 38.031 55.9559L35.7944 59.8611C35.6074 60.1847 35.7297 60.7385 36.1396 60.9687" fill="black"/>
<path d="M53.9312 60.9472C54.3339 60.7171 54.4562 60.1705 54.2692 59.8397L52.0254 55.9417C51.8384 55.6109 51.299 55.4383 50.8963 55.6756C50.4935 55.9057 50.3713 56.4595 50.5583 56.7903L52.8021 60.6883C52.9891 61.012 53.5213 61.1846 53.9312 60.9472Z" fill="black"/>
<path d="M29.5153 54.3594C29.7454 54.7621 30.292 54.8844 30.6228 54.6974L34.5208 52.4535C34.8516 52.2665 35.0242 51.7271 34.7941 51.3244C34.5639 50.9216 34.0102 50.7994 33.6793 50.9864L29.7814 53.2302C29.4578 53.4172 29.2852 53.9566 29.5225 54.3594" fill="black"/>
<path d="M45.0205 33.6468C45.488 33.6468 45.8619 33.2369 45.8619 32.8557L45.8619 28.3536C45.8619 27.9724 45.488 27.5553 45.0205 27.5553C44.553 27.5553 44.1719 27.9724 44.1719 28.3536L44.1719 32.8557C44.1719 33.2297 44.553 33.6468 45.0205 33.6468Z" fill="black"/>
<path d="M34.7805 39.5814C35.0106 39.1786 34.838 38.6464 34.5144 38.4594L30.6093 36.2228C30.2784 36.0358 29.7319 36.1509 29.5017 36.5608C29.2716 36.9635 29.4442 37.5029 29.775 37.6899L33.6801 39.9266C34.011 40.1136 34.5575 39.9913 34.7877 39.5814" fill="black"/>
<path d="M50.8818 35.208C51.2845 35.4382 51.8167 35.2656 52.0037 34.9419L54.2403 31.0368C54.4273 30.7059 54.3051 30.1594 53.9023 29.9292C53.4996 29.6991 52.9602 29.8717 52.7732 30.2025L50.5366 34.1077C50.3496 34.4313 50.4718 34.9851 50.8818 35.2152" fill="black"/>
<path d="M39.1382 35.2152C39.541 34.985 39.6632 34.4384 39.4762 34.1076L37.2324 30.2096C37.0454 29.8788 36.506 29.7062 36.1033 29.9435C35.7006 30.1737 35.5783 30.7274 35.7653 31.0583L38.0091 34.9563C38.1961 35.2799 38.7283 35.4525 39.1382 35.2152Z" fill="black"/>
<path d="M55.25 39.5656C55.4801 39.9684 56.0267 40.0907 56.3575 39.9037L60.2555 37.6598C60.5863 37.4728 60.7589 36.9334 60.5288 36.5307C60.2986 36.1279 59.7448 36.0057 59.414 36.1927L55.5161 38.4365C55.1925 38.6235 55.0199 39.1629 55.25 39.5656Z" fill="black"/>
</svg>
