<svg width="91" height="91" viewBox="0 0 91 91" fill="none" xmlns="http://www.w3.org/2000/svg">
<rect x="0.408203" y="1.03882" width="89.2044" height="89.2044" rx="17.7359" transform="rotate(-0.256047 0.408203 1.03882)" fill="#C5192D"/>
<path d="M40.3727 38.0106L26.3145 29.8877L26.3145 56.1544L40.3727 60.3928L40.3727 38.0106Z" fill="white"/>
<path d="M41.916 38.0588L41.916 60.4008L56.0708 56.1463L56.0708 29.8877L41.916 38.0588Z" fill="white"/>
<path d="M64.1875 55.6879L63.7773 55.6879L65.4421 61.5026L67.0989 55.6879L66.6887 55.6879L67.0989 55.6879L67.0989 32.3165L66.6887 32.3165L66.2786 32.3165L65.8362 32.3165L65.0078 32.3165L64.6057 32.3165L64.1875 32.3165L63.7773 32.3165L63.7773 55.6879L64.1875 55.6879Z" fill="white"/>
<path d="M59.0954 31.0129L57.5834 29.8226L57.5834 56.8614L41.9649 61.9121L41.2411 61.9121L41.0964 61.9121L40.3725 61.9121L24.8184 57.5691L24.8184 29.8226L23.3145 31.0129L23.3145 58.6227L40.3002 63.3275L41.0964 63.3275L41.2411 63.3275L42.0293 63.3275L57.704 58.3493L59.0954 57.9471L59.0954 31.0129Z" fill="white"/>
<path d="M67.1069 29.2201C67.1069 28.3032 66.359 27.5553 65.4421 27.5553C64.5253 27.5553 63.7773 28.2952 63.7773 29.2201L63.7773 31.0136L67.1069 31.0136L67.1069 29.2201Z" fill="white"/>
</svg>
