<svg width="91" height="91" viewBox="0 0 91 91" fill="none" xmlns="http://www.w3.org/2000/svg">
<rect x="0.816406" y="1.03882" width="89.2044" height="89.2044" rx="17.7359" transform="rotate(-0.256047 0.816406 1.03882)" fill="#A21942"/>
<path d="M59.2808 36.0163L52.1264 42.8243C51.8592 43.0914 51.7148 43.2935 51.7148 43.8494L51.7148 62.9233C51.7148 63.1471 51.8953 63.3275 52.1264 63.3275L59.5191 63.3275C59.7429 63.3275 59.9234 63.1471 59.9234 62.9233L59.9234 36.1968C59.9234 35.973 59.7501 35.5615 59.2808 36.0235" fill="white"/>
<path d="M38.6676 44.8821L31.5131 51.6828C31.246 51.9499 31.1016 52.1521 31.1016 52.7007L31.1016 62.9091C31.1016 63.1329 31.2821 63.3134 31.5131 63.3134L38.9058 63.3134C39.1296 63.3134 39.3101 63.1329 39.3101 62.9091L39.3101 45.0481C39.3101 44.8243 39.1296 44.4128 38.6676 44.8748" fill="white"/>
<path d="M62.5284 27.7647C62.5284 27.7069 62.514 27.6492 62.4707 27.6131C62.4346 27.577 62.384 27.5625 62.3407 27.5553L62.3046 27.5553L62.2469 27.5553L56.7673 28.7898L56.6662 28.7898C56.6301 28.8043 56.5868 28.8259 56.5579 28.8548C56.4785 28.9342 56.4785 29.0714 56.5579 29.1508L56.6229 29.2158L57.8719 30.4647L45.4616 42.875L39.7294 37.1428C39.6644 37.0778 39.5633 37.0778 39.4983 37.1428L37.9462 38.6949L28.7558 47.8853C28.6908 47.9503 28.6908 48.0514 28.7558 48.1164L30.3152 49.6757C30.3801 49.7407 30.4812 49.7407 30.5462 49.6757L39.6211 40.6009L43.7795 44.7593C43.7795 44.7593 43.7795 44.7737 43.7939 44.781L45.3461 46.3331C45.4111 46.3981 45.5121 46.3981 45.5771 46.3331L59.6623 32.248L60.9762 33.5619C61.0557 33.6413 61.1856 33.6413 61.265 33.5619C61.3011 33.5258 61.3228 33.4753 61.3228 33.4247L61.3228 33.4103L62.5284 27.8224L62.5284 27.7647Z" fill="white"/>
<path d="M49.0155 46.0728L45.5573 49.5598C45.4924 49.6104 45.3985 49.6104 45.3335 49.5526L42.2003 46.3544C41.63 45.7841 41.5 46.2461 41.5 46.4699L41.5 62.9086C41.5 63.1324 41.6805 63.3129 41.9043 63.3129L49.297 63.3129C49.5208 63.3129 49.7013 63.1324 49.7013 62.9086L49.7013 46.2028C49.7013 45.979 49.5208 45.5675 49.0155 46.0728Z" fill="white"/>
</svg>
